<svg width="5714" height="1777" viewBox="0 0 5714 1777" fill="none" xmlns="http://www.w3.org/2000/svg">
<line x1="245.695" y1="0.5" x2="1236.75" y2="0.5" stroke="#05FF00"/>
<line x1="1384.75" y1="0.5" x2="2375.81" y2="0.5" stroke="#05FF00"/>
<line x1="2523.81" y1="0.5" x2="3514.86" y2="0.5" stroke="#05FF00"/>
<line x1="3662.87" y1="0.5" x2="4653.92" y2="0.5" stroke="#05FF00"/>
<line x1="4801.92" y1="0.5" x2="5468.31" y2="0.5" stroke="#05FF00" stroke-dasharray="80 80"/>
<line x1="0.839844" y1="148.5" x2="667.224" y2="148.5" stroke="#05FF00" stroke-dasharray="80 80"/>
<line x1="815.223" y1="148.5" x2="1806.28" y2="148.5" stroke="#05FF00"/>
<line x1="1954.28" y1="148.5" x2="2620.66" y2="148.5" stroke="#05FF00" stroke-dasharray="80 80"/>
<line x1="2768.66" y1="148.5" x2="3435.05" y2="148.5" stroke="#FF00C7" stroke-dasharray="80 80"/>
<line x1="3583.05" y1="148.5" x2="4574.1" y2="148.5" stroke="#05FF00"/>
<line x1="4722.11" y1="148.5" x2="5713.16" y2="148.5" stroke="#05FF00"/>
<line x1="325.512" y1="296.5" x2="991.896" y2="296.5" stroke="#05FF00" stroke-dasharray="80 80"/>
<line x1="1139.9" y1="296.5" x2="2130.95" y2="296.5" stroke="#05FF00"/>
<line x1="2278.95" y1="296.5" x2="2945.34" y2="296.5" stroke="#05FF00" stroke-dasharray="80 80"/>
<line x1="3093.34" y1="296.5" x2="3759.72" y2="296.5" stroke="#05FF00" stroke-dasharray="80 80"/>
<line x1="3907.72" y1="296.5" x2="4574.1" y2="296.5" stroke="#05FF00" stroke-dasharray="80 80"/>
<line x1="4722.11" y1="296.5" x2="5388.49" y2="296.5" stroke="#05FF00" stroke-dasharray="80 80"/>
<line x1="0.839844" y1="444.5" x2="991.896" y2="444.5" stroke="#05FF00"/>
<line x1="1139.9" y1="444.5" x2="1806.28" y2="444.5" stroke="#05FF00" stroke-dasharray="80 80"/>
<line x1="1954.28" y1="444.5" x2="2620.66" y2="444.5" stroke="#05FF00" stroke-dasharray="80 80"/>
<line x1="2768.66" y1="444.5" x2="3759.72" y2="444.5" stroke="#05FF00"/>
<line x1="3907.72" y1="444.5" x2="4898.78" y2="444.5" stroke="#05FF00"/>
<line x1="5046.78" y1="444.5" x2="5713.16" y2="444.5" stroke="#05FF00" stroke-dasharray="80 80"/>
<line x1="408.031" y1="592.5" x2="1399.09" y2="592.5" stroke="#FF00C7"/>
<line x1="1547.09" y1="592.5" x2="2213.47" y2="592.5" stroke="#05FF00" stroke-dasharray="80 80"/>
<line x1="2361.47" y1="592.5" x2="3352.53" y2="592.5" stroke="#05FF00"/>
<line x1="3500.53" y1="592.5" x2="4491.58" y2="592.5" stroke="#05FF00"/>
<line x1="4639.59" y1="592.5" x2="5305.97" y2="592.5" stroke="#05FF00" stroke-dasharray="80 80"/>
<line x1="245.695" y1="740.5" x2="1236.75" y2="740.5" stroke="#05FF00"/>
<line x1="1384.75" y1="740.5" x2="2375.81" y2="740.5" stroke="#05FF00"/>
<line x1="2523.81" y1="740.5" x2="3190.19" y2="740.5" stroke="#05FF00" stroke-dasharray="80 80"/>
<line x1="3338.19" y1="740.5" x2="4329.25" y2="740.5" stroke="#05FF00"/>
<line x1="4477.25" y1="740.5" x2="5468.3" y2="740.5" stroke="#FF00C7"/>
<line x1="163.176" y1="888.5" x2="829.56" y2="888.5" stroke="#05FF00" stroke-dasharray="80 80"/>
<line x1="977.559" y1="888.5" x2="1968.61" y2="888.5" stroke="#05FF00"/>
<line x1="2116.62" y1="888.5" x2="2783" y2="888.5" stroke="#05FF00" stroke-dasharray="80 80"/>
<line x1="2931" y1="888.5" x2="3922.06" y2="888.5" stroke="#05FF00"/>
<line x1="4070.06" y1="888.5" x2="4736.44" y2="888.5" stroke="#05FF00" stroke-dasharray="80 80"/>
<line x1="4884.44" y1="888.5" x2="5550.83" y2="888.5" stroke="#05FF00" stroke-dasharray="80 80"/>
<line x1="245.695" y1="1036.5" x2="912.079" y2="1036.5" stroke="#05FF00" stroke-dasharray="80 80"/>
<line x1="1060.08" y1="1036.5" x2="2051.14" y2="1036.5" stroke="#05FF00"/>
<line x1="2199.14" y1="1036.5" x2="3190.19" y2="1036.5" stroke="#05FF00"/>
<line x1="3338.19" y1="1036.5" x2="4329.25" y2="1036.5" stroke="#05FF00"/>
<line x1="4477.25" y1="1036.5" x2="5468.3" y2="1036.5" stroke="#05FF00"/>
<line x1="163.176" y1="1184.5" x2="829.56" y2="1184.5" stroke="#05FF00" stroke-dasharray="80 80"/>
<line x1="977.559" y1="1184.5" x2="1968.61" y2="1184.5" stroke="#FF00C7"/>
<line x1="2116.62" y1="1184.5" x2="2783" y2="1184.5" stroke="#05FF00" stroke-dasharray="80 80"/>
<line x1="2931" y1="1184.5" x2="3922.06" y2="1184.5" stroke="#FF00C7"/>
<line x1="4070.06" y1="1184.5" x2="4736.44" y2="1184.5" stroke="#05FF00" stroke-dasharray="80 80"/>
<line x1="4884.44" y1="1184.5" x2="5550.83" y2="1184.5" stroke="#05FF00" stroke-dasharray="80 80"/>
<line x1="163.176" y1="1332.5" x2="1154.23" y2="1332.5" stroke="#05FF00"/>
<line x1="1302.23" y1="1332.5" x2="2293.29" y2="1332.5" stroke="#05FF00"/>
<line x1="2441.29" y1="1332.5" x2="3107.67" y2="1332.5" stroke="#05FF00" stroke-dasharray="80 80"/>
<line x1="3255.67" y1="1332.5" x2="3922.06" y2="1332.5" stroke="#05FF00" stroke-dasharray="80 80"/>
<line x1="4070.06" y1="1332.5" x2="4736.44" y2="1332.5" stroke="#05FF00" stroke-dasharray="80 80"/>
<line x1="4884.44" y1="1332.5" x2="5550.83" y2="1332.5" stroke="#05FF00" stroke-dasharray="80 80"/>
<line x1="0.839844" y1="1480.5" x2="667.224" y2="1480.5" stroke="#05FF00" stroke-dasharray="80 80"/>
<line x1="815.223" y1="1480.5" x2="1481.61" y2="1480.5" stroke="#FF00C7" stroke-dasharray="80 80"/>
<line x1="1629.61" y1="1480.5" x2="2620.66" y2="1480.5" stroke="#05FF00"/>
<line x1="2768.66" y1="1480.5" x2="3435.05" y2="1480.5" stroke="#05FF00" stroke-dasharray="80 80"/>
<line x1="3583.05" y1="1480.5" x2="4574.1" y2="1480.5" stroke="#05FF00"/>
<line x1="4722.11" y1="1480.5" x2="5713.16" y2="1480.5" stroke="#05FF00"/>
<line x1="0.839844" y1="1628.5" x2="667.224" y2="1628.5" stroke="#05FF00" stroke-dasharray="80 80"/>
<line x1="815.223" y1="1628.5" x2="1481.61" y2="1628.5" stroke="#05FF00" stroke-dasharray="80 80"/>
<line x1="1629.61" y1="1628.5" x2="2620.66" y2="1628.5" stroke="#05FF00"/>
<line x1="2768.66" y1="1628.5" x2="3759.72" y2="1628.5" stroke="#05FF00"/>
<line x1="3907.72" y1="1628.5" x2="4574.1" y2="1628.5" stroke="#05FF00" stroke-dasharray="80 80"/>
<line x1="4722.11" y1="1628.5" x2="5713.16" y2="1628.5" stroke="#FF00C7"/>
<line x1="1954.28" y1="1776.5" x2="2945.34" y2="1776.5" stroke="#05FF00"/>
<line x1="3093.34" y1="1776.5" x2="3759.72" y2="1776.5" stroke="#05FF00" stroke-dasharray="80 80"/>
</svg>
