<svg width="1452" height="823" viewBox="0 0 1452 823" fill="none" xmlns="http://www.w3.org/2000/svg">
<mask id="path-1-outside-1_2_27" maskUnits="userSpaceOnUse" x="0" y="0" width="1452" height="823" fill="black">
<rect fill="white" width="1452" height="823"/>
<path d="M363.05 808.36C356.121 806.683 351.388 803.76 346.224 797.915C339.812 790.68 337.273 784.02 336.541 772.425C336.068 764.998 335.293 761.261 333.27 756.661C329.569 748.324 321.307 740.754 313.259 738.454C311.753 737.975 308.009 737.448 304.911 737.208C294.454 736.441 288.515 733.615 281.888 726.236C275.26 718.857 272.721 712.293 271.99 700.554C271.516 693.128 270.742 689.39 268.719 684.791C265.018 676.454 256.756 668.883 248.708 666.583C247.202 666.104 243.458 665.577 240.36 665.338C229.902 664.571 223.964 661.744 217.336 654.365C210.709 646.987 208.17 640.423 207.438 628.684C206.965 621.257 206.191 617.52 204.168 612.92C199.004 601.229 186.051 592.557 175.464 593.755C162.683 595.144 152.011 605.158 148.18 619.341C147.535 621.736 147.449 626.576 147.191 664.427C146.932 706.783 146.932 706.831 145.943 710.424C144.221 716.845 141.854 721.157 137.293 726.236C132.645 731.411 128.729 733.998 122.876 735.914C119.95 736.873 118.444 737.016 112.763 737.016C107.083 737.016 105.577 736.873 102.65 735.914C96.7977 733.998 92.8816 731.411 88.2339 726.236C83.6723 721.157 81.3054 716.845 79.584 710.424C78.5943 706.831 78.5943 706.783 78.3361 664.427C78.0348 617.328 78.2069 620.011 75.0655 612.92C71.3645 604.583 63.102 597.013 55.0546 594.713C53.5484 594.234 49.8044 593.707 46.706 593.467C36.2487 592.701 30.3099 589.874 23.6827 582.495C19.035 577.32 16.7112 572.96 14.9898 566.444L14 562.611V519.249V475.887L14.9898 472.054C16.7112 465.538 19.035 461.178 23.6827 456.003C28.3304 450.828 32.2465 448.241 38.0991 446.325C41.0254 445.366 42.5316 445.223 48.2121 445.223C53.8927 445.223 55.3988 445.366 58.3252 446.325C64.1778 448.241 68.0939 450.828 72.7416 456.003C79.4119 463.43 81.9079 469.946 82.6395 481.733C83.0698 488.441 83.4141 490.597 84.8773 494.813C86.7277 500.132 91.1602 506.408 95.98 510.433C98.0457 512.158 103.898 515.176 106.739 515.943C108.632 516.47 116.12 516.614 145.254 516.614H181.403L184.63 515.512C192.161 512.829 197.971 508.133 202.188 501.186C205.631 495.532 206.879 490.932 207.438 481.685C208.17 469.946 210.709 463.382 217.336 456.003C224.007 448.576 229.816 445.797 240.618 444.983C246.729 444.504 250.645 443.45 254.561 441.294C262.823 436.646 268.934 428.117 271.172 418.151C271.688 415.947 271.775 402.436 271.775 339.333C271.775 267.176 271.732 263.007 271 260.036C268.633 250.693 262.35 242.26 254.346 237.757C250.344 235.505 246.858 234.594 240.36 234.115C229.902 233.349 223.964 230.522 217.336 223.143C212.689 217.968 210.365 213.608 208.643 207.092C207.783 203.834 207.654 202.157 207.654 195.832C207.654 189.508 207.783 187.831 208.643 184.572C210.365 178.056 212.689 173.696 217.336 168.521C224.007 161.095 229.816 158.316 240.618 157.501C248.45 156.878 253.313 155.201 258.563 151.177C261.188 149.164 264.76 145.092 266.74 141.834C270.182 136.18 271.43 131.58 271.99 122.333C272.721 110.594 275.26 104.03 281.888 96.651C286.535 91.4763 290.451 88.889 296.304 86.9724L299.747 85.8704H338.693H377.639L381.081 86.9724C386.934 88.889 390.85 91.4763 395.498 96.651C402.168 104.078 404.664 110.594 405.396 122.381C405.826 129.089 406.17 131.245 407.633 135.461C409.484 140.779 413.916 147.056 418.736 151.081C420.802 152.806 426.654 155.824 429.495 156.591C431.388 157.118 438.876 157.262 468.01 157.262H504.159L507.387 156.16C513.067 154.147 517.069 151.512 520.942 147.152C526.924 140.492 529.979 132.538 529.936 123.722C529.85 113.756 525.762 104.892 518.188 98.0884C512.508 93.0096 507.473 91.0451 498.565 90.3743C488.107 89.6077 482.168 86.7808 475.541 79.4021C470.894 74.2274 468.57 69.8673 466.848 63.351C465.988 60.0929 465.859 58.4159 465.859 52.0913C465.859 45.7667 465.988 44.0898 466.848 40.8316C468.57 34.3154 470.894 29.9552 475.541 24.7806C480.189 19.6059 484.105 17.0186 489.958 15.102L493.4 14H532.346H571.292L574.735 15.102C580.588 17.0186 584.504 19.6059 589.151 24.7806C593.799 29.9552 596.123 34.3154 597.844 40.8316L598.834 44.6647V88.0265V131.388L597.844 135.221C596.123 141.738 593.799 146.098 589.151 151.273C582.481 158.699 576.672 161.478 565.87 162.293C558.038 162.916 553.175 164.592 547.925 168.617C543.75 171.78 539.146 177.96 537.123 183.087C534.67 189.316 534.799 187.304 534.498 233.205C534.24 275.56 534.24 275.608 533.25 279.202C531.529 285.622 529.162 289.935 524.6 295.013C519.952 300.188 516.036 302.775 510.184 304.692C507.257 305.65 505.751 305.794 500.071 305.794C494.39 305.794 492.884 305.65 489.958 304.692C484.105 302.775 480.189 300.188 475.541 295.013C468.914 287.635 466.375 281.07 465.643 269.332C465.17 261.905 464.395 258.168 462.373 253.568C458.672 245.231 450.409 237.661 442.362 235.361C440.856 234.882 437.112 234.355 434.013 234.115C423.556 233.349 417.617 230.522 410.99 223.143C404.363 215.764 401.824 209.2 401.092 197.461C400.877 193.964 400.404 189.747 400.016 188.118C397.865 178.727 391.194 170.055 382.803 165.599C376.434 162.197 376.778 162.245 337.186 162.388L301.898 162.532L298.886 163.682C293.206 165.79 289.332 168.426 285.545 172.642C279.564 179.302 276.508 187.256 276.551 196.072C276.594 204.6 279.779 212.65 285.589 218.927C289.117 222.76 290.624 223.957 294.583 226.018C299.058 228.366 301.081 228.845 307.88 229.372C318.424 230.186 324.319 233.013 330.947 240.392C337.617 247.818 340.113 254.335 340.844 266.121C341.275 272.829 341.619 274.985 343.082 279.202C344.933 284.52 349.365 290.797 354.185 294.822C356.208 296.499 362.06 299.565 364.685 300.236C365.847 300.571 369.333 301.003 372.431 301.242C382.975 302.057 388.87 304.884 395.498 312.262C400.059 317.341 402.426 321.653 404.148 328.074C405.137 331.667 405.137 331.715 405.396 374.071C405.611 406.029 405.783 416.953 406.213 418.391C408.15 425.338 410.732 430.273 414.691 434.538C418.22 438.371 419.726 439.569 423.685 441.629C428.204 443.977 431.044 444.743 435.735 444.695C445.159 444.695 454.67 438.754 460.393 429.315C463.836 423.661 465.084 419.062 465.643 409.814C466.375 398.076 468.914 391.511 475.541 384.133C480.189 378.958 484.105 376.371 489.958 374.454C492.884 373.496 494.39 373.352 500.071 373.352C505.751 373.352 507.257 373.496 510.184 374.454C516.036 376.371 519.952 378.958 524.6 384.133C531.27 391.559 533.766 398.076 534.498 409.862C534.928 416.57 535.273 418.726 536.736 422.943C538.586 428.261 543.019 434.538 547.839 438.563C549.947 440.335 555.757 443.306 558.597 444.073C562.341 445.079 568.151 444.887 571.938 443.593C582.782 439.904 590.442 431.328 593.756 419.158C594.445 416.666 594.531 410.198 594.746 338.136L594.961 259.797L595.951 256.203C597.758 249.735 600.125 245.423 604.644 240.392C609.291 235.217 613.207 232.63 619.06 230.713L622.503 229.611H758.276H894.048L897.491 230.713C903.344 232.63 907.26 235.217 911.908 240.392C916.555 245.566 918.879 249.927 920.6 256.443C921.461 259.701 921.59 261.378 921.59 267.703C921.59 274.027 921.461 275.704 920.6 278.962C918.879 285.479 916.555 289.839 911.908 295.013C907.346 300.092 903.473 302.727 897.706 304.644C894.479 305.746 894.479 305.746 856.393 306.033L818.308 306.273L815.296 307.423C809.658 309.531 805.742 312.118 801.955 316.383C795.974 323.043 792.918 330.996 792.961 339.813C793.004 348.341 796.189 356.391 801.998 362.667C805.527 366.5 807.033 367.698 810.992 369.759C815.468 372.106 817.491 372.585 824.29 373.113C834.833 373.927 840.729 376.754 847.356 384.133C854.027 391.559 856.523 398.076 857.254 409.862C857.684 416.57 858.029 418.726 859.492 422.943C861.342 428.261 865.775 434.538 870.595 438.563C872.66 440.287 878.513 443.306 881.353 444.073C883.247 444.6 890.735 444.743 919.869 444.743H956.018L959.245 443.641C966.776 440.958 972.586 436.263 976.803 429.315C980.246 423.661 981.494 419.062 982.053 409.814C982.785 398.076 985.324 391.511 991.951 384.133C996.599 378.958 1000.51 376.371 1006.37 374.454C1009.29 373.496 1010.8 373.352 1016.48 373.352C1022.16 373.352 1023.67 373.496 1026.59 374.454C1032.45 376.371 1036.36 378.958 1041.01 384.133C1047.68 391.559 1050.18 398.076 1050.91 409.862C1051.34 416.57 1051.68 418.726 1053.15 422.943C1055 428.261 1059.43 434.538 1064.25 438.563C1066.31 440.287 1072.17 443.306 1075.01 444.073C1076.9 444.6 1084.39 444.743 1113.52 444.743H1149.67L1152.9 443.641C1158.58 441.629 1162.58 438.994 1166.45 434.634C1172.44 427.974 1175.49 420.02 1175.45 411.204C1175.36 401.238 1171.27 392.374 1163.7 385.57C1158.02 380.491 1152.98 378.527 1144.08 377.856C1133.62 377.089 1127.68 374.262 1121.05 366.884C1116.49 361.805 1114.12 357.493 1112.4 351.072C1111.41 347.479 1111.41 347.431 1111.16 305.075C1110.85 257.976 1111.03 260.659 1107.89 253.568C1104.27 245.375 1096.31 238.044 1088.09 235.313C1085.77 234.546 1082.24 234.451 1047.47 234.163C1009.38 233.876 1009.38 233.876 1006.15 232.774C1000.39 230.857 996.513 228.222 991.951 223.143C987.303 217.968 984.979 213.608 983.258 207.092L982.268 203.259V123.962V44.6647L983.258 40.8316C984.979 34.3154 987.303 29.9552 991.951 24.7806C996.599 19.6059 1000.51 17.0186 1006.37 15.102L1009.81 14H1048.76H1087.7L1091.14 15.102C1097 17.0186 1100.91 19.6059 1105.56 24.7806C1110.08 29.8115 1112.45 34.1237 1114.25 40.5921L1115.24 44.1856L1115.46 122.524C1115.63 184.189 1115.8 201.294 1116.23 202.78C1118.26 209.823 1120.8 214.662 1124.75 218.927C1128.28 222.76 1129.79 223.957 1133.75 226.018C1138.27 228.366 1141.11 229.132 1145.8 229.084C1158.75 229.036 1170.67 218.495 1174.72 203.546C1175.36 201.151 1175.45 196.311 1175.71 158.46C1175.97 116.104 1175.96 116.056 1176.95 112.462C1178.68 106.042 1181.04 101.73 1185.6 96.651C1190.25 91.4763 1194.17 88.889 1200.02 86.9724L1203.46 85.8704H1242.41H1281.36L1284.8 86.9724C1290.65 88.889 1294.57 91.4763 1299.21 96.651C1305.89 104.078 1308.38 110.594 1309.11 122.381C1309.54 129.089 1309.89 131.245 1311.35 135.461C1313.2 140.779 1317.63 147.056 1322.45 151.081C1324.48 152.758 1330.33 155.824 1332.95 156.495C1334.12 156.83 1337.6 157.262 1340.7 157.501C1351.24 158.316 1357.14 161.143 1363.77 168.521C1368.41 173.696 1370.74 178.056 1372.46 184.572L1373.45 188.406V267.703V347L1372.46 350.833C1370.74 357.349 1368.41 361.709 1363.77 366.884C1359.12 372.058 1355.2 374.646 1349.35 376.562C1346.42 377.521 1344.92 377.664 1339.24 377.664C1333.56 377.664 1332.05 377.521 1329.12 376.562C1323.27 374.646 1319.35 372.058 1314.71 366.884C1310.19 361.853 1307.82 357.541 1306.01 351.072L1305.02 347.479L1304.81 269.14C1304.59 195.832 1304.51 190.61 1303.78 187.926C1300.46 175.421 1290.74 165.455 1279.46 162.963C1268.75 160.616 1256.65 166.749 1249.81 177.96C1246.37 183.614 1245.12 188.214 1244.56 197.461C1243.83 209.2 1241.29 215.764 1234.66 223.143C1227.99 230.57 1222.18 233.349 1211.38 234.163C1201.44 234.93 1195.24 237.852 1189.26 244.512C1183.28 251.172 1180.23 259.126 1180.27 267.942C1180.31 276.471 1183.5 284.52 1189.31 290.797C1192.83 294.63 1194.34 295.828 1198.3 297.888C1202.78 300.236 1204.8 300.715 1211.6 301.242C1222.14 302.057 1228.04 304.884 1234.66 312.262C1239.18 317.293 1241.55 321.605 1243.36 328.074L1244.35 331.667L1244.56 410.006C1244.73 471.671 1244.91 488.776 1245.34 490.261C1247.36 497.305 1249.9 502.144 1253.86 506.408C1257.39 510.241 1258.89 511.439 1262.85 513.499C1267.33 515.847 1269.35 516.326 1276.15 516.853C1286.69 517.668 1292.59 520.495 1299.21 527.874C1303.86 533.048 1306.19 537.408 1307.91 543.925C1308.77 547.183 1308.9 548.86 1308.9 555.184C1308.9 561.509 1308.77 563.186 1307.91 566.444C1306.19 572.96 1303.86 577.32 1299.21 582.495C1292.54 589.922 1286.73 592.701 1275.93 593.515C1265.99 594.282 1259.8 597.204 1253.81 603.865C1247.83 610.524 1244.78 618.478 1244.82 627.294C1244.86 635.823 1248.05 643.872 1253.86 650.149C1257.39 653.982 1258.89 655.18 1262.85 657.24C1269.05 660.498 1267.28 660.355 1307.18 660.355H1343.32L1346.55 659.253C1357.48 655.42 1365.06 646.891 1368.37 634.769C1369.06 632.277 1369.15 625.809 1369.36 553.747L1369.58 475.408L1370.57 471.815C1372.37 465.346 1374.74 461.034 1379.26 456.003C1383.91 450.828 1387.82 448.241 1393.67 446.325C1396.6 445.366 1398.11 445.223 1403.79 445.223C1409.47 445.223 1410.97 445.366 1413.9 446.325C1419.75 448.241 1423.67 450.828 1428.32 456.003C1432.96 461.178 1435.29 465.538 1437.01 472.054L1438 475.887V555.184V634.481L1437.01 638.314C1435.29 644.831 1432.96 649.191 1428.32 654.365C1421.65 661.792 1415.84 664.571 1405.04 665.386C1397.2 666.008 1392.34 667.685 1387.09 671.71C1384.47 673.723 1380.89 677.795 1378.91 681.053C1375.47 686.707 1374.22 691.307 1373.66 700.554C1372.93 712.293 1370.39 718.857 1363.77 726.236C1359.25 731.267 1355.37 733.902 1349.56 735.914L1346.34 737.016L1275.98 737.256L1205.62 737.496L1202.6 738.646C1195.03 741.472 1189.39 746.12 1185.26 752.924C1181.82 758.578 1180.57 763.177 1180.01 772.425C1179.28 784.163 1176.74 790.728 1170.11 798.106C1165.46 803.281 1161.55 805.868 1155.7 807.785L1152.25 808.887H1048.76H945.259L941.816 807.785C935.964 805.868 932.047 803.281 927.4 798.106C922.752 792.932 920.428 788.571 918.707 782.055C917.846 778.797 917.717 777.12 917.717 770.796C917.717 764.471 917.846 762.794 918.707 759.536C920.428 753.02 922.752 748.659 927.4 743.485C934.07 736.058 939.88 733.279 950.681 732.465C960.622 731.698 966.819 728.775 972.801 722.115C978.783 715.455 981.838 707.502 981.795 698.686C981.709 688.719 977.621 679.855 970.047 673.052C964.366 667.973 959.331 666.008 950.423 665.338C939.966 664.571 934.027 661.744 927.4 654.365C922.752 649.191 920.428 644.831 918.707 638.314C917.846 635.056 917.717 633.379 917.717 627.055C917.717 620.73 917.846 619.053 918.707 615.795C920.428 609.279 922.752 604.919 927.4 599.744C931.961 594.665 935.834 592.03 941.601 590.113C944.829 589.011 944.829 589.011 982.914 588.724L1021 588.484L1024.01 587.334C1035.29 583.166 1043.08 574.062 1045.79 561.892C1046.26 559.736 1046.39 551.591 1046.39 519.009C1046.39 481.589 1046.35 478.522 1045.61 475.648C1042.47 463.142 1032.62 452.985 1021.26 450.445C1010.54 448.097 998.449 454.23 991.607 465.442C988.164 471.096 986.916 475.696 986.357 484.943C985.625 496.682 983.086 503.246 976.459 510.625C971.897 515.703 968.024 518.339 962.257 520.255C959.03 521.357 959.03 521.357 920.945 521.645L882.859 521.884L879.847 523.034C872.316 525.861 866.679 530.509 862.504 537.312C859.062 542.966 857.814 547.566 857.254 556.813C856.523 568.552 853.984 575.116 847.356 582.495C842.709 587.67 838.792 590.257 832.94 592.174L829.497 593.276H790.551H751.605L748.163 592.174C742.31 590.257 738.394 587.67 733.746 582.495C727.119 575.116 724.58 568.552 723.848 556.813C723.375 549.387 722.6 545.649 720.578 541.05C716.877 532.713 708.614 525.142 700.567 522.843C699.061 522.363 695.317 521.836 692.218 521.597C681.761 520.83 675.822 518.003 669.195 510.625C662.568 503.246 660.029 496.682 659.297 484.943C659.082 481.445 658.609 477.229 658.221 475.6C655.424 463.43 645.311 452.937 633.95 450.445C623.234 448.097 611.142 454.23 604.299 465.442C600.857 471.096 599.609 475.696 599.049 484.943C598.318 496.682 595.779 503.246 589.151 510.625C582.481 518.051 576.672 520.83 565.87 521.645C558.038 522.268 553.175 523.945 547.925 527.969C545.3 529.982 541.728 534.054 539.748 537.312C536.305 542.966 535.057 547.566 534.498 556.813C533.766 568.552 531.227 575.116 524.6 582.495C517.93 589.922 512.12 592.701 501.319 593.515C491.378 594.282 485.181 597.204 479.199 603.865C473.217 610.524 470.162 618.478 470.205 627.294C470.248 635.823 473.433 643.872 479.242 650.149C482.771 653.982 484.277 655.18 488.236 657.24C492.712 659.588 494.734 660.067 501.534 660.594C512.077 661.409 517.973 664.236 524.6 671.614C531.27 679.041 533.766 685.557 534.498 697.344C534.928 704.052 535.273 706.208 536.736 710.424C538.586 715.743 543.019 722.019 547.839 726.044C549.947 727.817 555.757 730.788 558.597 731.554C559.888 731.89 562.728 732.177 564.837 732.177C577.79 732.129 589.711 721.588 593.756 706.639C594.402 704.244 594.488 699.404 594.746 661.552C595.004 619.197 595.004 619.149 595.994 615.555C597.715 609.135 600.082 604.823 604.644 599.744C609.291 594.569 613.207 591.982 619.06 590.065C621.986 589.107 623.493 588.963 629.173 588.963C634.854 588.963 636.36 589.107 639.286 590.065C645.139 591.982 649.055 594.569 653.703 599.744C658.35 604.919 660.674 609.279 662.396 615.795L663.385 619.628V698.925V778.222L662.396 782.055C660.674 788.571 658.35 792.932 653.703 798.106C649.055 803.281 645.139 805.868 639.286 807.785L635.843 808.887H596.898H557.952L554.509 807.785C548.656 805.868 544.74 803.281 540.092 798.106C533.465 790.728 530.926 784.163 530.195 772.425C529.979 768.927 529.506 764.711 529.119 763.081C526.322 750.911 516.208 740.418 504.847 737.927C494.132 735.579 482.039 741.712 475.197 752.924C471.754 758.578 470.506 763.177 469.947 772.425C469.215 784.163 466.676 790.728 460.049 798.106C455.53 803.137 451.657 805.772 445.848 807.785L442.62 808.887L404.32 808.983C371.7 809.031 365.589 808.935 363.05 808.36ZM443.05 731.075C448.731 728.967 452.604 726.332 456.391 722.115C462.373 715.455 465.428 707.502 465.385 698.686C465.299 688.719 461.211 679.855 453.637 673.052C447.956 667.973 442.921 666.008 434.013 665.338C423.556 664.571 417.617 661.744 410.99 654.365C404.363 646.987 401.824 640.423 401.092 628.684C400.619 621.257 399.844 617.52 397.822 612.92C394.121 604.583 385.858 597.013 377.811 594.713C376.305 594.234 372.561 593.707 369.462 593.467C359.005 592.701 353.066 589.874 346.439 582.495C341.791 577.32 339.467 572.96 337.746 566.444C336.885 563.186 336.756 561.509 336.756 555.184C336.756 548.86 336.885 547.183 337.746 543.925C339.467 537.408 341.791 533.048 346.439 527.874C353.109 520.447 358.919 517.668 369.72 516.853C375.831 516.374 379.747 515.32 383.663 513.164C391.926 508.516 398.08 499.94 400.275 490.022C401.049 486.428 400.963 479.433 400.059 475.648C397.779 466.113 391.237 457.536 382.803 453.08C376.434 449.678 376.778 449.726 337.186 449.87L301.898 450.014L298.886 451.164C287.611 455.38 279.822 464.436 277.111 476.606C276.25 480.391 276.207 629.882 277.068 633.523C278.574 640.039 281.457 645.693 285.589 650.149C289.117 653.982 290.624 655.18 294.583 657.24C299.058 659.588 301.081 660.067 307.88 660.594C318.424 661.409 324.319 664.236 330.947 671.614C337.617 679.041 340.113 685.557 340.844 697.344C341.275 704.052 341.619 706.208 343.082 710.424C344.933 715.743 349.365 722.019 354.185 726.044C356.423 727.913 362.275 730.883 364.943 731.458C366.234 731.746 367.698 732.081 368.171 732.177C368.644 732.273 384.997 732.321 404.535 732.273L440.038 732.225L443.05 731.075ZM1153.11 731.075C1164.39 726.859 1172.18 717.803 1174.89 705.633C1175.36 703.477 1175.49 695.332 1175.49 662.75C1175.49 625.33 1175.45 622.263 1174.72 619.388C1171.58 606.883 1161.72 596.725 1150.36 594.186C1139.64 591.838 1127.55 597.971 1120.71 609.183C1117.27 614.837 1116.02 619.436 1115.46 628.684C1114.73 640.423 1112.19 646.987 1105.56 654.365C1098.89 661.792 1093.08 664.571 1082.28 665.386C1076.17 665.865 1072.25 666.919 1068.34 669.075C1060.07 673.723 1053.92 682.299 1051.73 692.217C1051.04 695.427 1050.99 702.71 1051.73 705.633C1053.7 713.778 1058.01 720.774 1064.25 726.044C1066.49 727.913 1072.34 730.883 1075.01 731.458C1076.3 731.746 1077.76 732.081 1078.23 732.177C1078.71 732.273 1095.06 732.321 1114.6 732.273L1150.1 732.225L1153.11 731.075ZM443.137 587.238C454.024 583.501 462.158 573.966 464.826 561.892C465.6 558.299 465.514 551.303 464.611 547.518C461.684 535.204 451.7 524.855 440.296 522.316C425.751 519.105 410.043 531.18 406.213 548.476C405.525 551.687 405.482 558.969 406.213 561.892C408.193 570.037 412.496 577.033 418.736 582.303C420.974 584.172 426.827 587.143 429.495 587.718C430.786 588.005 432.249 588.341 432.722 588.436C434.444 588.868 440.296 588.197 443.137 587.238ZM507.688 515.368C518.575 511.631 526.709 502.096 529.377 490.022C530.152 486.428 530.065 479.433 529.162 475.648C526.235 463.334 516.252 452.985 504.847 450.445C490.302 447.235 474.595 459.309 470.764 476.606C470.076 479.816 470.033 487.099 470.764 490.022C472.744 498.167 477.047 505.162 483.287 510.433C485.525 512.302 491.378 515.272 494.046 515.847C495.337 516.135 496.8 516.47 497.273 516.566C498.995 516.997 504.847 516.326 507.688 515.368ZM830.358 515.464C841.633 511.247 849.465 502.096 852.133 490.022C852.908 486.428 852.822 479.433 851.918 475.648C849.637 466.113 843.096 457.536 834.661 453.08C828.292 449.678 828.636 449.726 789.045 449.87L753.757 450.014L750.745 451.164C739.47 455.38 731.637 464.532 728.969 476.606C728.281 479.816 728.238 487.099 728.969 490.022C730.949 498.167 735.252 505.162 741.492 510.433C743.73 512.302 749.583 515.272 752.251 515.847C753.542 516.135 755.005 516.47 755.478 516.566C755.952 516.662 772.305 516.71 791.842 516.662L827.345 516.614L830.358 515.464ZM701.341 443.498C712.186 439.76 720.319 430.273 723.031 418.151C723.504 415.995 723.633 407.85 723.633 375.269C723.633 330.374 723.762 332.626 720.578 325.438C715.414 313.748 702.46 305.075 691.874 306.273C678.748 307.71 667.646 318.443 664.418 332.865C663.557 336.602 663.514 414.27 664.375 417.912C666.269 426.105 670.615 433.244 676.941 438.563C679.179 440.431 685.031 443.402 687.7 443.977C688.991 444.264 690.454 444.6 690.927 444.695C692.648 445.127 698.501 444.456 701.341 443.498Z"/>
</mask>
<path d="M363.05 808.36C356.121 806.683 351.388 803.76 346.224 797.915C339.812 790.68 337.273 784.02 336.541 772.425C336.068 764.998 335.293 761.261 333.27 756.661C329.569 748.324 321.307 740.754 313.259 738.454C311.753 737.975 308.009 737.448 304.911 737.208C294.454 736.441 288.515 733.615 281.888 726.236C275.26 718.857 272.721 712.293 271.99 700.554C271.516 693.128 270.742 689.39 268.719 684.791C265.018 676.454 256.756 668.883 248.708 666.583C247.202 666.104 243.458 665.577 240.36 665.338C229.902 664.571 223.964 661.744 217.336 654.365C210.709 646.987 208.17 640.423 207.438 628.684C206.965 621.257 206.191 617.52 204.168 612.92C199.004 601.229 186.051 592.557 175.464 593.755C162.683 595.144 152.011 605.158 148.18 619.341C147.535 621.736 147.449 626.576 147.191 664.427C146.932 706.783 146.932 706.831 145.943 710.424C144.221 716.845 141.854 721.157 137.293 726.236C132.645 731.411 128.729 733.998 122.876 735.914C119.95 736.873 118.444 737.016 112.763 737.016C107.083 737.016 105.577 736.873 102.65 735.914C96.7977 733.998 92.8816 731.411 88.2339 726.236C83.6723 721.157 81.3054 716.845 79.584 710.424C78.5943 706.831 78.5943 706.783 78.3361 664.427C78.0348 617.328 78.2069 620.011 75.0655 612.92C71.3645 604.583 63.102 597.013 55.0546 594.713C53.5484 594.234 49.8044 593.707 46.706 593.467C36.2487 592.701 30.3099 589.874 23.6827 582.495C19.035 577.32 16.7112 572.96 14.9898 566.444L14 562.611V519.249V475.887L14.9898 472.054C16.7112 465.538 19.035 461.178 23.6827 456.003C28.3304 450.828 32.2465 448.241 38.0991 446.325C41.0254 445.366 42.5316 445.223 48.2121 445.223C53.8927 445.223 55.3988 445.366 58.3252 446.325C64.1778 448.241 68.0939 450.828 72.7416 456.003C79.4119 463.43 81.9079 469.946 82.6395 481.733C83.0698 488.441 83.4141 490.597 84.8773 494.813C86.7277 500.132 91.1602 506.408 95.98 510.433C98.0457 512.158 103.898 515.176 106.739 515.943C108.632 516.47 116.12 516.614 145.254 516.614H181.403L184.63 515.512C192.161 512.829 197.971 508.133 202.188 501.186C205.631 495.532 206.879 490.932 207.438 481.685C208.17 469.946 210.709 463.382 217.336 456.003C224.007 448.576 229.816 445.797 240.618 444.983C246.729 444.504 250.645 443.45 254.561 441.294C262.823 436.646 268.934 428.117 271.172 418.151C271.688 415.947 271.775 402.436 271.775 339.333C271.775 267.176 271.732 263.007 271 260.036C268.633 250.693 262.35 242.26 254.346 237.757C250.344 235.505 246.858 234.594 240.36 234.115C229.902 233.349 223.964 230.522 217.336 223.143C212.689 217.968 210.365 213.608 208.643 207.092C207.783 203.834 207.654 202.157 207.654 195.832C207.654 189.508 207.783 187.831 208.643 184.572C210.365 178.056 212.689 173.696 217.336 168.521C224.007 161.095 229.816 158.316 240.618 157.501C248.45 156.878 253.313 155.201 258.563 151.177C261.188 149.164 264.76 145.092 266.74 141.834C270.182 136.18 271.43 131.58 271.99 122.333C272.721 110.594 275.26 104.03 281.888 96.651C286.535 91.4763 290.451 88.889 296.304 86.9724L299.747 85.8704H338.693H377.639L381.081 86.9724C386.934 88.889 390.85 91.4763 395.498 96.651C402.168 104.078 404.664 110.594 405.396 122.381C405.826 129.089 406.17 131.245 407.633 135.461C409.484 140.779 413.916 147.056 418.736 151.081C420.802 152.806 426.654 155.824 429.495 156.591C431.388 157.118 438.876 157.262 468.01 157.262H504.159L507.387 156.16C513.067 154.147 517.069 151.512 520.942 147.152C526.924 140.492 529.979 132.538 529.936 123.722C529.85 113.756 525.762 104.892 518.188 98.0884C512.508 93.0096 507.473 91.0451 498.565 90.3743C488.107 89.6077 482.168 86.7808 475.541 79.4021C470.894 74.2274 468.57 69.8673 466.848 63.351C465.988 60.0929 465.859 58.4159 465.859 52.0913C465.859 45.7667 465.988 44.0898 466.848 40.8316C468.57 34.3154 470.894 29.9552 475.541 24.7806C480.189 19.6059 484.105 17.0186 489.958 15.102L493.4 14H532.346H571.292L574.735 15.102C580.588 17.0186 584.504 19.6059 589.151 24.7806C593.799 29.9552 596.123 34.3154 597.844 40.8316L598.834 44.6647V88.0265V131.388L597.844 135.221C596.123 141.738 593.799 146.098 589.151 151.273C582.481 158.699 576.672 161.478 565.87 162.293C558.038 162.916 553.175 164.592 547.925 168.617C543.75 171.78 539.146 177.96 537.123 183.087C534.67 189.316 534.799 187.304 534.498 233.205C534.24 275.56 534.24 275.608 533.25 279.202C531.529 285.622 529.162 289.935 524.6 295.013C519.952 300.188 516.036 302.775 510.184 304.692C507.257 305.65 505.751 305.794 500.071 305.794C494.39 305.794 492.884 305.65 489.958 304.692C484.105 302.775 480.189 300.188 475.541 295.013C468.914 287.635 466.375 281.07 465.643 269.332C465.17 261.905 464.395 258.168 462.373 253.568C458.672 245.231 450.409 237.661 442.362 235.361C440.856 234.882 437.112 234.355 434.013 234.115C423.556 233.349 417.617 230.522 410.99 223.143C404.363 215.764 401.824 209.2 401.092 197.461C400.877 193.964 400.404 189.747 400.016 188.118C397.865 178.727 391.194 170.055 382.803 165.599C376.434 162.197 376.778 162.245 337.186 162.388L301.898 162.532L298.886 163.682C293.206 165.79 289.332 168.426 285.545 172.642C279.564 179.302 276.508 187.256 276.551 196.072C276.594 204.6 279.779 212.65 285.589 218.927C289.117 222.76 290.624 223.957 294.583 226.018C299.058 228.366 301.081 228.845 307.88 229.372C318.424 230.186 324.319 233.013 330.947 240.392C337.617 247.818 340.113 254.335 340.844 266.121C341.275 272.829 341.619 274.985 343.082 279.202C344.933 284.52 349.365 290.797 354.185 294.822C356.208 296.499 362.06 299.565 364.685 300.236C365.847 300.571 369.333 301.003 372.431 301.242C382.975 302.057 388.87 304.884 395.498 312.262C400.059 317.341 402.426 321.653 404.148 328.074C405.137 331.667 405.137 331.715 405.396 374.071C405.611 406.029 405.783 416.953 406.213 418.391C408.15 425.338 410.732 430.273 414.691 434.538C418.22 438.371 419.726 439.569 423.685 441.629C428.204 443.977 431.044 444.743 435.735 444.695C445.159 444.695 454.67 438.754 460.393 429.315C463.836 423.661 465.084 419.062 465.643 409.814C466.375 398.076 468.914 391.511 475.541 384.133C480.189 378.958 484.105 376.371 489.958 374.454C492.884 373.496 494.39 373.352 500.071 373.352C505.751 373.352 507.257 373.496 510.184 374.454C516.036 376.371 519.952 378.958 524.6 384.133C531.27 391.559 533.766 398.076 534.498 409.862C534.928 416.57 535.273 418.726 536.736 422.943C538.586 428.261 543.019 434.538 547.839 438.563C549.947 440.335 555.757 443.306 558.597 444.073C562.341 445.079 568.151 444.887 571.938 443.593C582.782 439.904 590.442 431.328 593.756 419.158C594.445 416.666 594.531 410.198 594.746 338.136L594.961 259.797L595.951 256.203C597.758 249.735 600.125 245.423 604.644 240.392C609.291 235.217 613.207 232.63 619.06 230.713L622.503 229.611H758.276H894.048L897.491 230.713C903.344 232.63 907.26 235.217 911.908 240.392C916.555 245.566 918.879 249.927 920.6 256.443C921.461 259.701 921.59 261.378 921.59 267.703C921.59 274.027 921.461 275.704 920.6 278.962C918.879 285.479 916.555 289.839 911.908 295.013C907.346 300.092 903.473 302.727 897.706 304.644C894.479 305.746 894.479 305.746 856.393 306.033L818.308 306.273L815.296 307.423C809.658 309.531 805.742 312.118 801.955 316.383C795.974 323.043 792.918 330.996 792.961 339.813C793.004 348.341 796.189 356.391 801.998 362.667C805.527 366.5 807.033 367.698 810.992 369.759C815.468 372.106 817.491 372.585 824.29 373.113C834.833 373.927 840.729 376.754 847.356 384.133C854.027 391.559 856.523 398.076 857.254 409.862C857.684 416.57 858.029 418.726 859.492 422.943C861.342 428.261 865.775 434.538 870.595 438.563C872.66 440.287 878.513 443.306 881.353 444.073C883.247 444.6 890.735 444.743 919.869 444.743H956.018L959.245 443.641C966.776 440.958 972.586 436.263 976.803 429.315C980.246 423.661 981.494 419.062 982.053 409.814C982.785 398.076 985.324 391.511 991.951 384.133C996.599 378.958 1000.51 376.371 1006.37 374.454C1009.29 373.496 1010.8 373.352 1016.48 373.352C1022.16 373.352 1023.67 373.496 1026.59 374.454C1032.45 376.371 1036.36 378.958 1041.01 384.133C1047.68 391.559 1050.18 398.076 1050.91 409.862C1051.34 416.57 1051.68 418.726 1053.15 422.943C1055 428.261 1059.43 434.538 1064.25 438.563C1066.31 440.287 1072.17 443.306 1075.01 444.073C1076.9 444.6 1084.39 444.743 1113.52 444.743H1149.67L1152.9 443.641C1158.58 441.629 1162.58 438.994 1166.45 434.634C1172.44 427.974 1175.49 420.02 1175.45 411.204C1175.36 401.238 1171.27 392.374 1163.7 385.57C1158.02 380.491 1152.98 378.527 1144.08 377.856C1133.62 377.089 1127.68 374.262 1121.05 366.884C1116.49 361.805 1114.12 357.493 1112.4 351.072C1111.41 347.479 1111.41 347.431 1111.16 305.075C1110.85 257.976 1111.03 260.659 1107.89 253.568C1104.27 245.375 1096.31 238.044 1088.09 235.313C1085.77 234.546 1082.24 234.451 1047.47 234.163C1009.38 233.876 1009.38 233.876 1006.15 232.774C1000.39 230.857 996.513 228.222 991.951 223.143C987.303 217.968 984.979 213.608 983.258 207.092L982.268 203.259V123.962V44.6647L983.258 40.8316C984.979 34.3154 987.303 29.9552 991.951 24.7806C996.599 19.6059 1000.51 17.0186 1006.37 15.102L1009.81 14H1048.76H1087.7L1091.14 15.102C1097 17.0186 1100.91 19.6059 1105.56 24.7806C1110.08 29.8115 1112.45 34.1237 1114.25 40.5921L1115.24 44.1856L1115.46 122.524C1115.63 184.189 1115.8 201.294 1116.23 202.78C1118.26 209.823 1120.8 214.662 1124.75 218.927C1128.28 222.76 1129.79 223.957 1133.75 226.018C1138.27 228.366 1141.11 229.132 1145.8 229.084C1158.75 229.036 1170.67 218.495 1174.72 203.546C1175.36 201.151 1175.45 196.311 1175.71 158.46C1175.97 116.104 1175.96 116.056 1176.95 112.462C1178.68 106.042 1181.04 101.73 1185.6 96.651C1190.25 91.4763 1194.17 88.889 1200.02 86.9724L1203.46 85.8704H1242.41H1281.36L1284.8 86.9724C1290.65 88.889 1294.57 91.4763 1299.21 96.651C1305.89 104.078 1308.38 110.594 1309.11 122.381C1309.54 129.089 1309.89 131.245 1311.35 135.461C1313.2 140.779 1317.63 147.056 1322.45 151.081C1324.48 152.758 1330.33 155.824 1332.95 156.495C1334.12 156.83 1337.6 157.262 1340.7 157.501C1351.24 158.316 1357.14 161.143 1363.77 168.521C1368.41 173.696 1370.74 178.056 1372.46 184.572L1373.45 188.406V267.703V347L1372.46 350.833C1370.74 357.349 1368.41 361.709 1363.77 366.884C1359.12 372.058 1355.2 374.646 1349.35 376.562C1346.42 377.521 1344.92 377.664 1339.24 377.664C1333.56 377.664 1332.05 377.521 1329.12 376.562C1323.27 374.646 1319.35 372.058 1314.71 366.884C1310.19 361.853 1307.82 357.541 1306.01 351.072L1305.02 347.479L1304.81 269.14C1304.59 195.832 1304.51 190.61 1303.78 187.926C1300.46 175.421 1290.74 165.455 1279.46 162.963C1268.75 160.616 1256.65 166.749 1249.81 177.96C1246.37 183.614 1245.12 188.214 1244.56 197.461C1243.83 209.2 1241.29 215.764 1234.66 223.143C1227.99 230.57 1222.18 233.349 1211.38 234.163C1201.44 234.93 1195.24 237.852 1189.26 244.512C1183.28 251.172 1180.23 259.126 1180.27 267.942C1180.31 276.471 1183.5 284.52 1189.31 290.797C1192.83 294.63 1194.34 295.828 1198.3 297.888C1202.78 300.236 1204.8 300.715 1211.6 301.242C1222.14 302.057 1228.04 304.884 1234.66 312.262C1239.18 317.293 1241.55 321.605 1243.36 328.074L1244.35 331.667L1244.56 410.006C1244.73 471.671 1244.91 488.776 1245.34 490.261C1247.36 497.305 1249.9 502.144 1253.86 506.408C1257.39 510.241 1258.89 511.439 1262.85 513.499C1267.33 515.847 1269.35 516.326 1276.15 516.853C1286.69 517.668 1292.59 520.495 1299.21 527.874C1303.86 533.048 1306.19 537.408 1307.91 543.925C1308.77 547.183 1308.9 548.86 1308.9 555.184C1308.9 561.509 1308.77 563.186 1307.91 566.444C1306.19 572.96 1303.86 577.32 1299.21 582.495C1292.54 589.922 1286.73 592.701 1275.93 593.515C1265.99 594.282 1259.8 597.204 1253.81 603.865C1247.83 610.524 1244.78 618.478 1244.82 627.294C1244.86 635.823 1248.05 643.872 1253.86 650.149C1257.39 653.982 1258.89 655.18 1262.85 657.24C1269.05 660.498 1267.28 660.355 1307.18 660.355H1343.32L1346.55 659.253C1357.48 655.42 1365.06 646.891 1368.37 634.769C1369.06 632.277 1369.15 625.809 1369.36 553.747L1369.58 475.408L1370.57 471.815C1372.37 465.346 1374.74 461.034 1379.26 456.003C1383.91 450.828 1387.82 448.241 1393.67 446.325C1396.6 445.366 1398.11 445.223 1403.79 445.223C1409.47 445.223 1410.97 445.366 1413.9 446.325C1419.75 448.241 1423.67 450.828 1428.32 456.003C1432.96 461.178 1435.29 465.538 1437.01 472.054L1438 475.887V555.184V634.481L1437.01 638.314C1435.29 644.831 1432.96 649.191 1428.32 654.365C1421.65 661.792 1415.84 664.571 1405.04 665.386C1397.2 666.008 1392.34 667.685 1387.09 671.71C1384.47 673.723 1380.89 677.795 1378.91 681.053C1375.47 686.707 1374.22 691.307 1373.66 700.554C1372.93 712.293 1370.39 718.857 1363.77 726.236C1359.25 731.267 1355.37 733.902 1349.56 735.914L1346.34 737.016L1275.98 737.256L1205.62 737.496L1202.6 738.646C1195.03 741.472 1189.39 746.12 1185.26 752.924C1181.82 758.578 1180.57 763.177 1180.01 772.425C1179.28 784.163 1176.74 790.728 1170.11 798.106C1165.46 803.281 1161.55 805.868 1155.7 807.785L1152.25 808.887H1048.76H945.259L941.816 807.785C935.964 805.868 932.047 803.281 927.4 798.106C922.752 792.932 920.428 788.571 918.707 782.055C917.846 778.797 917.717 777.12 917.717 770.796C917.717 764.471 917.846 762.794 918.707 759.536C920.428 753.02 922.752 748.659 927.4 743.485C934.07 736.058 939.88 733.279 950.681 732.465C960.622 731.698 966.819 728.775 972.801 722.115C978.783 715.455 981.838 707.502 981.795 698.686C981.709 688.719 977.621 679.855 970.047 673.052C964.366 667.973 959.331 666.008 950.423 665.338C939.966 664.571 934.027 661.744 927.4 654.365C922.752 649.191 920.428 644.831 918.707 638.314C917.846 635.056 917.717 633.379 917.717 627.055C917.717 620.73 917.846 619.053 918.707 615.795C920.428 609.279 922.752 604.919 927.4 599.744C931.961 594.665 935.834 592.03 941.601 590.113C944.829 589.011 944.829 589.011 982.914 588.724L1021 588.484L1024.01 587.334C1035.29 583.166 1043.08 574.062 1045.79 561.892C1046.26 559.736 1046.39 551.591 1046.39 519.009C1046.39 481.589 1046.35 478.522 1045.61 475.648C1042.47 463.142 1032.62 452.985 1021.26 450.445C1010.54 448.097 998.449 454.23 991.607 465.442C988.164 471.096 986.916 475.696 986.357 484.943C985.625 496.682 983.086 503.246 976.459 510.625C971.897 515.703 968.024 518.339 962.257 520.255C959.03 521.357 959.03 521.357 920.945 521.645L882.859 521.884L879.847 523.034C872.316 525.861 866.679 530.509 862.504 537.312C859.062 542.966 857.814 547.566 857.254 556.813C856.523 568.552 853.984 575.116 847.356 582.495C842.709 587.67 838.792 590.257 832.94 592.174L829.497 593.276H790.551H751.605L748.163 592.174C742.31 590.257 738.394 587.67 733.746 582.495C727.119 575.116 724.58 568.552 723.848 556.813C723.375 549.387 722.6 545.649 720.578 541.05C716.877 532.713 708.614 525.142 700.567 522.843C699.061 522.363 695.317 521.836 692.218 521.597C681.761 520.83 675.822 518.003 669.195 510.625C662.568 503.246 660.029 496.682 659.297 484.943C659.082 481.445 658.609 477.229 658.221 475.6C655.424 463.43 645.311 452.937 633.95 450.445C623.234 448.097 611.142 454.23 604.299 465.442C600.857 471.096 599.609 475.696 599.049 484.943C598.318 496.682 595.779 503.246 589.151 510.625C582.481 518.051 576.672 520.83 565.87 521.645C558.038 522.268 553.175 523.945 547.925 527.969C545.3 529.982 541.728 534.054 539.748 537.312C536.305 542.966 535.057 547.566 534.498 556.813C533.766 568.552 531.227 575.116 524.6 582.495C517.93 589.922 512.12 592.701 501.319 593.515C491.378 594.282 485.181 597.204 479.199 603.865C473.217 610.524 470.162 618.478 470.205 627.294C470.248 635.823 473.433 643.872 479.242 650.149C482.771 653.982 484.277 655.18 488.236 657.24C492.712 659.588 494.734 660.067 501.534 660.594C512.077 661.409 517.973 664.236 524.6 671.614C531.27 679.041 533.766 685.557 534.498 697.344C534.928 704.052 535.273 706.208 536.736 710.424C538.586 715.743 543.019 722.019 547.839 726.044C549.947 727.817 555.757 730.788 558.597 731.554C559.888 731.89 562.728 732.177 564.837 732.177C577.79 732.129 589.711 721.588 593.756 706.639C594.402 704.244 594.488 699.404 594.746 661.552C595.004 619.197 595.004 619.149 595.994 615.555C597.715 609.135 600.082 604.823 604.644 599.744C609.291 594.569 613.207 591.982 619.06 590.065C621.986 589.107 623.493 588.963 629.173 588.963C634.854 588.963 636.36 589.107 639.286 590.065C645.139 591.982 649.055 594.569 653.703 599.744C658.35 604.919 660.674 609.279 662.396 615.795L663.385 619.628V698.925V778.222L662.396 782.055C660.674 788.571 658.35 792.932 653.703 798.106C649.055 803.281 645.139 805.868 639.286 807.785L635.843 808.887H596.898H557.952L554.509 807.785C548.656 805.868 544.74 803.281 540.092 798.106C533.465 790.728 530.926 784.163 530.195 772.425C529.979 768.927 529.506 764.711 529.119 763.081C526.322 750.911 516.208 740.418 504.847 737.927C494.132 735.579 482.039 741.712 475.197 752.924C471.754 758.578 470.506 763.177 469.947 772.425C469.215 784.163 466.676 790.728 460.049 798.106C455.53 803.137 451.657 805.772 445.848 807.785L442.62 808.887L404.32 808.983C371.7 809.031 365.589 808.935 363.05 808.36ZM443.05 731.075C448.731 728.967 452.604 726.332 456.391 722.115C462.373 715.455 465.428 707.502 465.385 698.686C465.299 688.719 461.211 679.855 453.637 673.052C447.956 667.973 442.921 666.008 434.013 665.338C423.556 664.571 417.617 661.744 410.99 654.365C404.363 646.987 401.824 640.423 401.092 628.684C400.619 621.257 399.844 617.52 397.822 612.92C394.121 604.583 385.858 597.013 377.811 594.713C376.305 594.234 372.561 593.707 369.462 593.467C359.005 592.701 353.066 589.874 346.439 582.495C341.791 577.32 339.467 572.96 337.746 566.444C336.885 563.186 336.756 561.509 336.756 555.184C336.756 548.86 336.885 547.183 337.746 543.925C339.467 537.408 341.791 533.048 346.439 527.874C353.109 520.447 358.919 517.668 369.72 516.853C375.831 516.374 379.747 515.32 383.663 513.164C391.926 508.516 398.08 499.94 400.275 490.022C401.049 486.428 400.963 479.433 400.059 475.648C397.779 466.113 391.237 457.536 382.803 453.08C376.434 449.678 376.778 449.726 337.186 449.87L301.898 450.014L298.886 451.164C287.611 455.38 279.822 464.436 277.111 476.606C276.25 480.391 276.207 629.882 277.068 633.523C278.574 640.039 281.457 645.693 285.589 650.149C289.117 653.982 290.624 655.18 294.583 657.24C299.058 659.588 301.081 660.067 307.88 660.594C318.424 661.409 324.319 664.236 330.947 671.614C337.617 679.041 340.113 685.557 340.844 697.344C341.275 704.052 341.619 706.208 343.082 710.424C344.933 715.743 349.365 722.019 354.185 726.044C356.423 727.913 362.275 730.883 364.943 731.458C366.234 731.746 367.698 732.081 368.171 732.177C368.644 732.273 384.997 732.321 404.535 732.273L440.038 732.225L443.05 731.075ZM1153.11 731.075C1164.39 726.859 1172.18 717.803 1174.89 705.633C1175.36 703.477 1175.49 695.332 1175.49 662.75C1175.49 625.33 1175.45 622.263 1174.72 619.388C1171.58 606.883 1161.72 596.725 1150.36 594.186C1139.64 591.838 1127.55 597.971 1120.71 609.183C1117.27 614.837 1116.02 619.436 1115.46 628.684C1114.73 640.423 1112.19 646.987 1105.56 654.365C1098.89 661.792 1093.08 664.571 1082.28 665.386C1076.17 665.865 1072.25 666.919 1068.34 669.075C1060.07 673.723 1053.92 682.299 1051.73 692.217C1051.04 695.427 1050.99 702.71 1051.73 705.633C1053.7 713.778 1058.01 720.774 1064.25 726.044C1066.49 727.913 1072.34 730.883 1075.01 731.458C1076.3 731.746 1077.76 732.081 1078.23 732.177C1078.71 732.273 1095.06 732.321 1114.6 732.273L1150.1 732.225L1153.11 731.075ZM443.137 587.238C454.024 583.501 462.158 573.966 464.826 561.892C465.6 558.299 465.514 551.303 464.611 547.518C461.684 535.204 451.7 524.855 440.296 522.316C425.751 519.105 410.043 531.18 406.213 548.476C405.525 551.687 405.482 558.969 406.213 561.892C408.193 570.037 412.496 577.033 418.736 582.303C420.974 584.172 426.827 587.143 429.495 587.718C430.786 588.005 432.249 588.341 432.722 588.436C434.444 588.868 440.296 588.197 443.137 587.238ZM507.688 515.368C518.575 511.631 526.709 502.096 529.377 490.022C530.152 486.428 530.065 479.433 529.162 475.648C526.235 463.334 516.252 452.985 504.847 450.445C490.302 447.235 474.595 459.309 470.764 476.606C470.076 479.816 470.033 487.099 470.764 490.022C472.744 498.167 477.047 505.162 483.287 510.433C485.525 512.302 491.378 515.272 494.046 515.847C495.337 516.135 496.8 516.47 497.273 516.566C498.995 516.997 504.847 516.326 507.688 515.368ZM830.358 515.464C841.633 511.247 849.465 502.096 852.133 490.022C852.908 486.428 852.822 479.433 851.918 475.648C849.637 466.113 843.096 457.536 834.661 453.08C828.292 449.678 828.636 449.726 789.045 449.87L753.757 450.014L750.745 451.164C739.47 455.38 731.637 464.532 728.969 476.606C728.281 479.816 728.238 487.099 728.969 490.022C730.949 498.167 735.252 505.162 741.492 510.433C743.73 512.302 749.583 515.272 752.251 515.847C753.542 516.135 755.005 516.47 755.478 516.566C755.952 516.662 772.305 516.71 791.842 516.662L827.345 516.614L830.358 515.464ZM701.341 443.498C712.186 439.76 720.319 430.273 723.031 418.151C723.504 415.995 723.633 407.85 723.633 375.269C723.633 330.374 723.762 332.626 720.578 325.438C715.414 313.748 702.46 305.075 691.874 306.273C678.748 307.71 667.646 318.443 664.418 332.865C663.557 336.602 663.514 414.27 664.375 417.912C666.269 426.105 670.615 433.244 676.941 438.563C679.179 440.431 685.031 443.402 687.7 443.977C688.991 444.264 690.454 444.6 690.927 444.695C692.648 445.127 698.501 444.456 701.341 443.498Z" fill="#2F2F2F"/>
<path d="M363.05 808.36C356.121 806.683 351.388 803.76 346.224 797.915C339.812 790.68 337.273 784.02 336.541 772.425C336.068 764.998 335.293 761.261 333.27 756.661C329.569 748.324 321.307 740.754 313.259 738.454C311.753 737.975 308.009 737.448 304.911 737.208C294.454 736.441 288.515 733.615 281.888 726.236C275.26 718.857 272.721 712.293 271.99 700.554C271.516 693.128 270.742 689.39 268.719 684.791C265.018 676.454 256.756 668.883 248.708 666.583C247.202 666.104 243.458 665.577 240.36 665.338C229.902 664.571 223.964 661.744 217.336 654.365C210.709 646.987 208.17 640.423 207.438 628.684C206.965 621.257 206.191 617.52 204.168 612.92C199.004 601.229 186.051 592.557 175.464 593.755C162.683 595.144 152.011 605.158 148.18 619.341C147.535 621.736 147.449 626.576 147.191 664.427C146.932 706.783 146.932 706.831 145.943 710.424C144.221 716.845 141.854 721.157 137.293 726.236C132.645 731.411 128.729 733.998 122.876 735.914C119.95 736.873 118.444 737.016 112.763 737.016C107.083 737.016 105.577 736.873 102.65 735.914C96.7977 733.998 92.8816 731.411 88.2339 726.236C83.6723 721.157 81.3054 716.845 79.584 710.424C78.5943 706.831 78.5943 706.783 78.3361 664.427C78.0348 617.328 78.2069 620.011 75.0655 612.92C71.3645 604.583 63.102 597.013 55.0546 594.713C53.5484 594.234 49.8044 593.707 46.706 593.467C36.2487 592.701 30.3099 589.874 23.6827 582.495C19.035 577.32 16.7112 572.96 14.9898 566.444L14 562.611V519.249V475.887L14.9898 472.054C16.7112 465.538 19.035 461.178 23.6827 456.003C28.3304 450.828 32.2465 448.241 38.0991 446.325C41.0254 445.366 42.5316 445.223 48.2121 445.223C53.8927 445.223 55.3988 445.366 58.3252 446.325C64.1778 448.241 68.0939 450.828 72.7416 456.003C79.4119 463.43 81.9079 469.946 82.6395 481.733C83.0698 488.441 83.4141 490.597 84.8773 494.813C86.7277 500.132 91.1602 506.408 95.98 510.433C98.0457 512.158 103.898 515.176 106.739 515.943C108.632 516.47 116.12 516.614 145.254 516.614H181.403L184.63 515.512C192.161 512.829 197.971 508.133 202.188 501.186C205.631 495.532 206.879 490.932 207.438 481.685C208.17 469.946 210.709 463.382 217.336 456.003C224.007 448.576 229.816 445.797 240.618 444.983C246.729 444.504 250.645 443.45 254.561 441.294C262.823 436.646 268.934 428.117 271.172 418.151C271.688 415.947 271.775 402.436 271.775 339.333C271.775 267.176 271.732 263.007 271 260.036C268.633 250.693 262.35 242.26 254.346 237.757C250.344 235.505 246.858 234.594 240.36 234.115C229.902 233.349 223.964 230.522 217.336 223.143C212.689 217.968 210.365 213.608 208.643 207.092C207.783 203.834 207.654 202.157 207.654 195.832C207.654 189.508 207.783 187.831 208.643 184.572C210.365 178.056 212.689 173.696 217.336 168.521C224.007 161.095 229.816 158.316 240.618 157.501C248.45 156.878 253.313 155.201 258.563 151.177C261.188 149.164 264.76 145.092 266.74 141.834C270.182 136.18 271.43 131.58 271.99 122.333C272.721 110.594 275.26 104.03 281.888 96.651C286.535 91.4763 290.451 88.889 296.304 86.9724L299.747 85.8704H338.693H377.639L381.081 86.9724C386.934 88.889 390.85 91.4763 395.498 96.651C402.168 104.078 404.664 110.594 405.396 122.381C405.826 129.089 406.17 131.245 407.633 135.461C409.484 140.779 413.916 147.056 418.736 151.081C420.802 152.806 426.654 155.824 429.495 156.591C431.388 157.118 438.876 157.262 468.01 157.262H504.159L507.387 156.16C513.067 154.147 517.069 151.512 520.942 147.152C526.924 140.492 529.979 132.538 529.936 123.722C529.85 113.756 525.762 104.892 518.188 98.0884C512.508 93.0096 507.473 91.0451 498.565 90.3743C488.107 89.6077 482.168 86.7808 475.541 79.4021C470.894 74.2274 468.57 69.8673 466.848 63.351C465.988 60.0929 465.859 58.4159 465.859 52.0913C465.859 45.7667 465.988 44.0898 466.848 40.8316C468.57 34.3154 470.894 29.9552 475.541 24.7806C480.189 19.6059 484.105 17.0186 489.958 15.102L493.4 14H532.346H571.292L574.735 15.102C580.588 17.0186 584.504 19.6059 589.151 24.7806C593.799 29.9552 596.123 34.3154 597.844 40.8316L598.834 44.6647V88.0265V131.388L597.844 135.221C596.123 141.738 593.799 146.098 589.151 151.273C582.481 158.699 576.672 161.478 565.87 162.293C558.038 162.916 553.175 164.592 547.925 168.617C543.75 171.78 539.146 177.96 537.123 183.087C534.67 189.316 534.799 187.304 534.498 233.205C534.24 275.56 534.24 275.608 533.25 279.202C531.529 285.622 529.162 289.935 524.6 295.013C519.952 300.188 516.036 302.775 510.184 304.692C507.257 305.65 505.751 305.794 500.071 305.794C494.39 305.794 492.884 305.65 489.958 304.692C484.105 302.775 480.189 300.188 475.541 295.013C468.914 287.635 466.375 281.07 465.643 269.332C465.17 261.905 464.395 258.168 462.373 253.568C458.672 245.231 450.409 237.661 442.362 235.361C440.856 234.882 437.112 234.355 434.013 234.115C423.556 233.349 417.617 230.522 410.99 223.143C404.363 215.764 401.824 209.2 401.092 197.461C400.877 193.964 400.404 189.747 400.016 188.118C397.865 178.727 391.194 170.055 382.803 165.599C376.434 162.197 376.778 162.245 337.186 162.388L301.898 162.532L298.886 163.682C293.206 165.79 289.332 168.426 285.545 172.642C279.564 179.302 276.508 187.256 276.551 196.072C276.594 204.6 279.779 212.65 285.589 218.927C289.117 222.76 290.624 223.957 294.583 226.018C299.058 228.366 301.081 228.845 307.88 229.372C318.424 230.186 324.319 233.013 330.947 240.392C337.617 247.818 340.113 254.335 340.844 266.121C341.275 272.829 341.619 274.985 343.082 279.202C344.933 284.52 349.365 290.797 354.185 294.822C356.208 296.499 362.06 299.565 364.685 300.236C365.847 300.571 369.333 301.003 372.431 301.242C382.975 302.057 388.87 304.884 395.498 312.262C400.059 317.341 402.426 321.653 404.148 328.074C405.137 331.667 405.137 331.715 405.396 374.071C405.611 406.029 405.783 416.953 406.213 418.391C408.15 425.338 410.732 430.273 414.691 434.538C418.22 438.371 419.726 439.569 423.685 441.629C428.204 443.977 431.044 444.743 435.735 444.695C445.159 444.695 454.67 438.754 460.393 429.315C463.836 423.661 465.084 419.062 465.643 409.814C466.375 398.076 468.914 391.511 475.541 384.133C480.189 378.958 484.105 376.371 489.958 374.454C492.884 373.496 494.39 373.352 500.071 373.352C505.751 373.352 507.257 373.496 510.184 374.454C516.036 376.371 519.952 378.958 524.6 384.133C531.27 391.559 533.766 398.076 534.498 409.862C534.928 416.57 535.273 418.726 536.736 422.943C538.586 428.261 543.019 434.538 547.839 438.563C549.947 440.335 555.757 443.306 558.597 444.073C562.341 445.079 568.151 444.887 571.938 443.593C582.782 439.904 590.442 431.328 593.756 419.158C594.445 416.666 594.531 410.198 594.746 338.136L594.961 259.797L595.951 256.203C597.758 249.735 600.125 245.423 604.644 240.392C609.291 235.217 613.207 232.63 619.06 230.713L622.503 229.611H758.276H894.048L897.491 230.713C903.344 232.63 907.26 235.217 911.908 240.392C916.555 245.566 918.879 249.927 920.6 256.443C921.461 259.701 921.59 261.378 921.59 267.703C921.59 274.027 921.461 275.704 920.6 278.962C918.879 285.479 916.555 289.839 911.908 295.013C907.346 300.092 903.473 302.727 897.706 304.644C894.479 305.746 894.479 305.746 856.393 306.033L818.308 306.273L815.296 307.423C809.658 309.531 805.742 312.118 801.955 316.383C795.974 323.043 792.918 330.996 792.961 339.813C793.004 348.341 796.189 356.391 801.998 362.667C805.527 366.5 807.033 367.698 810.992 369.759C815.468 372.106 817.491 372.585 824.29 373.113C834.833 373.927 840.729 376.754 847.356 384.133C854.027 391.559 856.523 398.076 857.254 409.862C857.684 416.57 858.029 418.726 859.492 422.943C861.342 428.261 865.775 434.538 870.595 438.563C872.66 440.287 878.513 443.306 881.353 444.073C883.247 444.6 890.735 444.743 919.869 444.743H956.018L959.245 443.641C966.776 440.958 972.586 436.263 976.803 429.315C980.246 423.661 981.494 419.062 982.053 409.814C982.785 398.076 985.324 391.511 991.951 384.133C996.599 378.958 1000.51 376.371 1006.37 374.454C1009.29 373.496 1010.8 373.352 1016.48 373.352C1022.16 373.352 1023.67 373.496 1026.59 374.454C1032.45 376.371 1036.36 378.958 1041.01 384.133C1047.68 391.559 1050.18 398.076 1050.91 409.862C1051.34 416.57 1051.68 418.726 1053.15 422.943C1055 428.261 1059.43 434.538 1064.25 438.563C1066.31 440.287 1072.17 443.306 1075.01 444.073C1076.9 444.6 1084.39 444.743 1113.52 444.743H1149.67L1152.9 443.641C1158.58 441.629 1162.58 438.994 1166.45 434.634C1172.44 427.974 1175.49 420.02 1175.45 411.204C1175.36 401.238 1171.27 392.374 1163.7 385.57C1158.02 380.491 1152.98 378.527 1144.08 377.856C1133.62 377.089 1127.68 374.262 1121.05 366.884C1116.49 361.805 1114.12 357.493 1112.4 351.072C1111.41 347.479 1111.41 347.431 1111.16 305.075C1110.85 257.976 1111.03 260.659 1107.89 253.568C1104.27 245.375 1096.31 238.044 1088.09 235.313C1085.77 234.546 1082.24 234.451 1047.47 234.163C1009.38 233.876 1009.38 233.876 1006.15 232.774C1000.39 230.857 996.513 228.222 991.951 223.143C987.303 217.968 984.979 213.608 983.258 207.092L982.268 203.259V123.962V44.6647L983.258 40.8316C984.979 34.3154 987.303 29.9552 991.951 24.7806C996.599 19.6059 1000.51 17.0186 1006.37 15.102L1009.81 14H1048.76H1087.7L1091.14 15.102C1097 17.0186 1100.91 19.6059 1105.56 24.7806C1110.08 29.8115 1112.45 34.1237 1114.25 40.5921L1115.24 44.1856L1115.46 122.524C1115.63 184.189 1115.8 201.294 1116.23 202.78C1118.26 209.823 1120.8 214.662 1124.75 218.927C1128.28 222.76 1129.79 223.957 1133.75 226.018C1138.27 228.366 1141.11 229.132 1145.8 229.084C1158.75 229.036 1170.67 218.495 1174.72 203.546C1175.36 201.151 1175.45 196.311 1175.71 158.46C1175.97 116.104 1175.96 116.056 1176.95 112.462C1178.68 106.042 1181.04 101.73 1185.6 96.651C1190.25 91.4763 1194.17 88.889 1200.02 86.9724L1203.46 85.8704H1242.41H1281.36L1284.8 86.9724C1290.65 88.889 1294.57 91.4763 1299.21 96.651C1305.89 104.078 1308.38 110.594 1309.11 122.381C1309.54 129.089 1309.89 131.245 1311.35 135.461C1313.2 140.779 1317.63 147.056 1322.45 151.081C1324.48 152.758 1330.33 155.824 1332.95 156.495C1334.12 156.83 1337.6 157.262 1340.7 157.501C1351.24 158.316 1357.14 161.143 1363.77 168.521C1368.41 173.696 1370.74 178.056 1372.46 184.572L1373.45 188.406V267.703V347L1372.46 350.833C1370.74 357.349 1368.41 361.709 1363.77 366.884C1359.12 372.058 1355.2 374.646 1349.35 376.562C1346.42 377.521 1344.92 377.664 1339.24 377.664C1333.56 377.664 1332.05 377.521 1329.12 376.562C1323.27 374.646 1319.35 372.058 1314.71 366.884C1310.19 361.853 1307.82 357.541 1306.01 351.072L1305.02 347.479L1304.81 269.14C1304.59 195.832 1304.51 190.61 1303.78 187.926C1300.46 175.421 1290.74 165.455 1279.46 162.963C1268.75 160.616 1256.65 166.749 1249.81 177.96C1246.37 183.614 1245.12 188.214 1244.56 197.461C1243.83 209.2 1241.29 215.764 1234.66 223.143C1227.99 230.57 1222.18 233.349 1211.38 234.163C1201.44 234.93 1195.24 237.852 1189.26 244.512C1183.28 251.172 1180.23 259.126 1180.27 267.942C1180.31 276.471 1183.5 284.52 1189.31 290.797C1192.83 294.63 1194.34 295.828 1198.3 297.888C1202.78 300.236 1204.8 300.715 1211.6 301.242C1222.14 302.057 1228.04 304.884 1234.66 312.262C1239.18 317.293 1241.55 321.605 1243.36 328.074L1244.35 331.667L1244.56 410.006C1244.73 471.671 1244.91 488.776 1245.34 490.261C1247.36 497.305 1249.9 502.144 1253.86 506.408C1257.39 510.241 1258.89 511.439 1262.85 513.499C1267.33 515.847 1269.35 516.326 1276.15 516.853C1286.69 517.668 1292.59 520.495 1299.21 527.874C1303.86 533.048 1306.19 537.408 1307.91 543.925C1308.77 547.183 1308.9 548.86 1308.9 555.184C1308.9 561.509 1308.77 563.186 1307.91 566.444C1306.19 572.96 1303.86 577.32 1299.21 582.495C1292.54 589.922 1286.73 592.701 1275.93 593.515C1265.99 594.282 1259.8 597.204 1253.81 603.865C1247.83 610.524 1244.78 618.478 1244.82 627.294C1244.86 635.823 1248.05 643.872 1253.86 650.149C1257.39 653.982 1258.89 655.18 1262.85 657.24C1269.05 660.498 1267.28 660.355 1307.18 660.355H1343.32L1346.55 659.253C1357.48 655.42 1365.06 646.891 1368.37 634.769C1369.06 632.277 1369.15 625.809 1369.36 553.747L1369.58 475.408L1370.57 471.815C1372.37 465.346 1374.74 461.034 1379.26 456.003C1383.91 450.828 1387.82 448.241 1393.67 446.325C1396.6 445.366 1398.11 445.223 1403.79 445.223C1409.47 445.223 1410.97 445.366 1413.9 446.325C1419.75 448.241 1423.67 450.828 1428.32 456.003C1432.96 461.178 1435.29 465.538 1437.01 472.054L1438 475.887V555.184V634.481L1437.01 638.314C1435.29 644.831 1432.96 649.191 1428.32 654.365C1421.65 661.792 1415.84 664.571 1405.04 665.386C1397.2 666.008 1392.34 667.685 1387.09 671.71C1384.47 673.723 1380.89 677.795 1378.91 681.053C1375.47 686.707 1374.22 691.307 1373.66 700.554C1372.93 712.293 1370.39 718.857 1363.77 726.236C1359.25 731.267 1355.37 733.902 1349.56 735.914L1346.34 737.016L1275.98 737.256L1205.62 737.496L1202.6 738.646C1195.03 741.472 1189.39 746.12 1185.26 752.924C1181.82 758.578 1180.57 763.177 1180.01 772.425C1179.28 784.163 1176.74 790.728 1170.11 798.106C1165.46 803.281 1161.55 805.868 1155.7 807.785L1152.25 808.887H1048.76H945.259L941.816 807.785C935.964 805.868 932.047 803.281 927.4 798.106C922.752 792.932 920.428 788.571 918.707 782.055C917.846 778.797 917.717 777.12 917.717 770.796C917.717 764.471 917.846 762.794 918.707 759.536C920.428 753.02 922.752 748.659 927.4 743.485C934.07 736.058 939.88 733.279 950.681 732.465C960.622 731.698 966.819 728.775 972.801 722.115C978.783 715.455 981.838 707.502 981.795 698.686C981.709 688.719 977.621 679.855 970.047 673.052C964.366 667.973 959.331 666.008 950.423 665.338C939.966 664.571 934.027 661.744 927.4 654.365C922.752 649.191 920.428 644.831 918.707 638.314C917.846 635.056 917.717 633.379 917.717 627.055C917.717 620.73 917.846 619.053 918.707 615.795C920.428 609.279 922.752 604.919 927.4 599.744C931.961 594.665 935.834 592.03 941.601 590.113C944.829 589.011 944.829 589.011 982.914 588.724L1021 588.484L1024.01 587.334C1035.29 583.166 1043.08 574.062 1045.79 561.892C1046.26 559.736 1046.39 551.591 1046.39 519.009C1046.39 481.589 1046.35 478.522 1045.61 475.648C1042.47 463.142 1032.62 452.985 1021.26 450.445C1010.54 448.097 998.449 454.23 991.607 465.442C988.164 471.096 986.916 475.696 986.357 484.943C985.625 496.682 983.086 503.246 976.459 510.625C971.897 515.703 968.024 518.339 962.257 520.255C959.03 521.357 959.03 521.357 920.945 521.645L882.859 521.884L879.847 523.034C872.316 525.861 866.679 530.509 862.504 537.312C859.062 542.966 857.814 547.566 857.254 556.813C856.523 568.552 853.984 575.116 847.356 582.495C842.709 587.67 838.792 590.257 832.94 592.174L829.497 593.276H790.551H751.605L748.163 592.174C742.31 590.257 738.394 587.67 733.746 582.495C727.119 575.116 724.58 568.552 723.848 556.813C723.375 549.387 722.6 545.649 720.578 541.05C716.877 532.713 708.614 525.142 700.567 522.843C699.061 522.363 695.317 521.836 692.218 521.597C681.761 520.83 675.822 518.003 669.195 510.625C662.568 503.246 660.029 496.682 659.297 484.943C659.082 481.445 658.609 477.229 658.221 475.6C655.424 463.43 645.311 452.937 633.95 450.445C623.234 448.097 611.142 454.23 604.299 465.442C600.857 471.096 599.609 475.696 599.049 484.943C598.318 496.682 595.779 503.246 589.151 510.625C582.481 518.051 576.672 520.83 565.87 521.645C558.038 522.268 553.175 523.945 547.925 527.969C545.3 529.982 541.728 534.054 539.748 537.312C536.305 542.966 535.057 547.566 534.498 556.813C533.766 568.552 531.227 575.116 524.6 582.495C517.93 589.922 512.12 592.701 501.319 593.515C491.378 594.282 485.181 597.204 479.199 603.865C473.217 610.524 470.162 618.478 470.205 627.294C470.248 635.823 473.433 643.872 479.242 650.149C482.771 653.982 484.277 655.18 488.236 657.24C492.712 659.588 494.734 660.067 501.534 660.594C512.077 661.409 517.973 664.236 524.6 671.614C531.27 679.041 533.766 685.557 534.498 697.344C534.928 704.052 535.273 706.208 536.736 710.424C538.586 715.743 543.019 722.019 547.839 726.044C549.947 727.817 555.757 730.788 558.597 731.554C559.888 731.89 562.728 732.177 564.837 732.177C577.79 732.129 589.711 721.588 593.756 706.639C594.402 704.244 594.488 699.404 594.746 661.552C595.004 619.197 595.004 619.149 595.994 615.555C597.715 609.135 600.082 604.823 604.644 599.744C609.291 594.569 613.207 591.982 619.06 590.065C621.986 589.107 623.493 588.963 629.173 588.963C634.854 588.963 636.36 589.107 639.286 590.065C645.139 591.982 649.055 594.569 653.703 599.744C658.35 604.919 660.674 609.279 662.396 615.795L663.385 619.628V698.925V778.222L662.396 782.055C660.674 788.571 658.35 792.932 653.703 798.106C649.055 803.281 645.139 805.868 639.286 807.785L635.843 808.887H596.898H557.952L554.509 807.785C548.656 805.868 544.74 803.281 540.092 798.106C533.465 790.728 530.926 784.163 530.195 772.425C529.979 768.927 529.506 764.711 529.119 763.081C526.322 750.911 516.208 740.418 504.847 737.927C494.132 735.579 482.039 741.712 475.197 752.924C471.754 758.578 470.506 763.177 469.947 772.425C469.215 784.163 466.676 790.728 460.049 798.106C455.53 803.137 451.657 805.772 445.848 807.785L442.62 808.887L404.32 808.983C371.7 809.031 365.589 808.935 363.05 808.36ZM443.05 731.075C448.731 728.967 452.604 726.332 456.391 722.115C462.373 715.455 465.428 707.502 465.385 698.686C465.299 688.719 461.211 679.855 453.637 673.052C447.956 667.973 442.921 666.008 434.013 665.338C423.556 664.571 417.617 661.744 410.99 654.365C404.363 646.987 401.824 640.423 401.092 628.684C400.619 621.257 399.844 617.52 397.822 612.92C394.121 604.583 385.858 597.013 377.811 594.713C376.305 594.234 372.561 593.707 369.462 593.467C359.005 592.701 353.066 589.874 346.439 582.495C341.791 577.32 339.467 572.96 337.746 566.444C336.885 563.186 336.756 561.509 336.756 555.184C336.756 548.86 336.885 547.183 337.746 543.925C339.467 537.408 341.791 533.048 346.439 527.874C353.109 520.447 358.919 517.668 369.72 516.853C375.831 516.374 379.747 515.32 383.663 513.164C391.926 508.516 398.08 499.94 400.275 490.022C401.049 486.428 400.963 479.433 400.059 475.648C397.779 466.113 391.237 457.536 382.803 453.08C376.434 449.678 376.778 449.726 337.186 449.87L301.898 450.014L298.886 451.164C287.611 455.38 279.822 464.436 277.111 476.606C276.25 480.391 276.207 629.882 277.068 633.523C278.574 640.039 281.457 645.693 285.589 650.149C289.117 653.982 290.624 655.18 294.583 657.24C299.058 659.588 301.081 660.067 307.88 660.594C318.424 661.409 324.319 664.236 330.947 671.614C337.617 679.041 340.113 685.557 340.844 697.344C341.275 704.052 341.619 706.208 343.082 710.424C344.933 715.743 349.365 722.019 354.185 726.044C356.423 727.913 362.275 730.883 364.943 731.458C366.234 731.746 367.698 732.081 368.171 732.177C368.644 732.273 384.997 732.321 404.535 732.273L440.038 732.225L443.05 731.075ZM1153.11 731.075C1164.39 726.859 1172.18 717.803 1174.89 705.633C1175.36 703.477 1175.49 695.332 1175.49 662.75C1175.49 625.33 1175.45 622.263 1174.72 619.388C1171.58 606.883 1161.72 596.725 1150.36 594.186C1139.64 591.838 1127.55 597.971 1120.71 609.183C1117.27 614.837 1116.02 619.436 1115.46 628.684C1114.73 640.423 1112.19 646.987 1105.56 654.365C1098.89 661.792 1093.08 664.571 1082.28 665.386C1076.17 665.865 1072.25 666.919 1068.34 669.075C1060.07 673.723 1053.92 682.299 1051.73 692.217C1051.04 695.427 1050.99 702.71 1051.73 705.633C1053.7 713.778 1058.01 720.774 1064.25 726.044C1066.49 727.913 1072.34 730.883 1075.01 731.458C1076.3 731.746 1077.76 732.081 1078.23 732.177C1078.71 732.273 1095.06 732.321 1114.6 732.273L1150.1 732.225L1153.11 731.075ZM443.137 587.238C454.024 583.501 462.158 573.966 464.826 561.892C465.6 558.299 465.514 551.303 464.611 547.518C461.684 535.204 451.7 524.855 440.296 522.316C425.751 519.105 410.043 531.18 406.213 548.476C405.525 551.687 405.482 558.969 406.213 561.892C408.193 570.037 412.496 577.033 418.736 582.303C420.974 584.172 426.827 587.143 429.495 587.718C430.786 588.005 432.249 588.341 432.722 588.436C434.444 588.868 440.296 588.197 443.137 587.238ZM507.688 515.368C518.575 511.631 526.709 502.096 529.377 490.022C530.152 486.428 530.065 479.433 529.162 475.648C526.235 463.334 516.252 452.985 504.847 450.445C490.302 447.235 474.595 459.309 470.764 476.606C470.076 479.816 470.033 487.099 470.764 490.022C472.744 498.167 477.047 505.162 483.287 510.433C485.525 512.302 491.378 515.272 494.046 515.847C495.337 516.135 496.8 516.47 497.273 516.566C498.995 516.997 504.847 516.326 507.688 515.368ZM830.358 515.464C841.633 511.247 849.465 502.096 852.133 490.022C852.908 486.428 852.822 479.433 851.918 475.648C849.637 466.113 843.096 457.536 834.661 453.08C828.292 449.678 828.636 449.726 789.045 449.87L753.757 450.014L750.745 451.164C739.47 455.38 731.637 464.532 728.969 476.606C728.281 479.816 728.238 487.099 728.969 490.022C730.949 498.167 735.252 505.162 741.492 510.433C743.73 512.302 749.583 515.272 752.251 515.847C753.542 516.135 755.005 516.47 755.478 516.566C755.952 516.662 772.305 516.71 791.842 516.662L827.345 516.614L830.358 515.464ZM701.341 443.498C712.186 439.76 720.319 430.273 723.031 418.151C723.504 415.995 723.633 407.85 723.633 375.269C723.633 330.374 723.762 332.626 720.578 325.438C715.414 313.748 702.46 305.075 691.874 306.273C678.748 307.71 667.646 318.443 664.418 332.865C663.557 336.602 663.514 414.27 664.375 417.912C666.269 426.105 670.615 433.244 676.941 438.563C679.179 440.431 685.031 443.402 687.7 443.977C688.991 444.264 690.454 444.6 690.927 444.695C692.648 445.127 698.501 444.456 701.341 443.498Z" stroke="white" stroke-opacity="0.06" stroke-width="28" mask="url(#path-1-outside-1_2_27)"/>
<path d="M814.91 808.36C807.895 806.635 803.248 803.712 798.084 797.915C791.671 790.68 789.132 784.02 788.401 772.425C787.928 764.998 787.153 761.261 785.13 756.661C781.429 748.324 773.167 740.754 765.119 738.454C763.613 737.975 759.869 737.448 756.771 737.208C746.313 736.442 740.375 733.615 733.747 726.236C729.1 721.061 726.776 716.701 725.055 710.185C724.194 706.927 724.065 705.25 724.065 698.925C724.065 692.601 724.194 690.924 725.055 687.665C726.776 681.149 729.1 676.789 733.747 671.614C738.395 666.44 742.311 663.852 748.164 661.936L751.607 660.834H790.553H829.499L832.941 661.936C838.794 663.852 842.71 666.44 847.358 671.614C852.005 676.789 854.329 681.149 856.051 687.665L857.04 691.499V734.86V778.222L856.051 782.055C854.329 788.572 852.005 792.932 847.358 798.106C842.796 803.185 838.837 805.868 833.156 807.689C828.853 809.079 819.256 809.462 814.91 808.36Z" fill="#2F2F2F"/>
<path d="M733.747 671.614L728.54 666.937C723.149 672.938 720.291 678.289 718.287 685.878C717.186 690.045 717.065 692.467 717.065 698.925C717.065 705.383 717.186 707.806 718.287 711.973C720.291 719.561 723.149 724.912 728.54 730.913C732.263 735.059 736.118 738.284 740.812 740.521C745.476 742.743 750.502 743.766 756.243 744.188C757.63 744.296 759.177 744.469 760.527 744.667C761.202 744.766 761.791 744.866 762.261 744.959C762.495 745.005 762.68 745.045 762.819 745.079C762.95 745.11 763.005 745.127 763.001 745.126L763.096 745.156L763.196 745.184C769.018 746.848 775.765 752.826 778.728 759.491C780.298 763.064 780.972 765.912 781.415 772.87C781.806 779.067 782.704 784.387 784.569 789.292C786.458 794.262 789.203 798.448 792.845 802.558L792.851 802.564L792.857 802.571C798.859 809.309 804.703 813.054 813.216 815.152C816.373 815.947 820.649 816.093 824.314 815.954C828.003 815.814 832.231 815.342 835.298 814.354C842.33 812.099 847.306 808.64 852.566 802.784C857.956 796.783 860.814 791.432 862.819 783.843L862.824 783.824L862.828 783.805L863.818 779.972L864.04 779.111V778.222V734.86V691.499V690.609L863.818 689.748L862.828 685.915L862.824 685.896L862.819 685.878C860.814 678.289 857.956 672.938 852.566 666.937C847.177 660.938 842.245 657.617 835.12 655.283L835.098 655.276L835.075 655.269L831.633 654.167L830.592 653.834H829.499H790.553H751.607H750.514L749.473 654.167L746.03 655.269L746.008 655.276L745.985 655.283C738.86 657.617 733.928 660.938 728.54 666.937L733.747 671.614Z" stroke="white" stroke-opacity="0.06" stroke-width="14"/>
<path d="M104.845 377.138C97.9168 375.461 93.183 372.538 88.0189 366.693C81.6068 359.458 79.0678 352.798 78.3362 341.203C77.8628 333.776 77.0882 330.039 75.0656 325.439C71.3646 317.102 63.1021 309.532 55.0547 307.232C53.5485 306.753 49.8045 306.226 46.706 305.986C36.2487 305.22 30.31 302.393 23.6827 295.014C19.035 289.839 16.7112 285.479 14.9898 278.963C14.1291 275.705 14 274.028 14 267.703C14 261.379 14.1291 259.702 14.9898 256.444C16.7112 249.927 19.035 245.567 23.6827 240.393C28.3304 235.218 32.2465 232.631 38.0992 230.714L41.5419 229.612H80.4879H119.434L122.877 230.714C128.729 232.631 132.645 235.218 137.293 240.393C143.963 247.819 146.459 254.335 147.191 266.122C147.621 272.83 147.966 274.986 149.429 279.203C151.279 284.521 155.712 290.798 160.532 294.822C162.554 296.499 168.407 299.566 171.032 300.237C172.194 300.572 175.68 301.003 178.778 301.243C189.321 302.057 195.217 304.884 201.844 312.263C206.492 317.438 208.816 321.798 210.537 328.314C211.398 331.572 211.527 333.249 211.527 339.574C211.527 345.898 211.398 347.575 210.537 350.833C208.816 357.35 206.492 361.71 201.844 366.885C197.326 371.915 193.453 374.551 187.643 376.563L184.416 377.665L146.115 377.761C113.495 377.809 107.384 377.713 104.845 377.138Z" fill="#2F2F2F"/>
<path d="M103.199 383.942L103.249 383.954L103.299 383.965C105.421 384.446 108.369 384.595 114.094 384.682C120.087 384.773 129.833 384.785 146.125 384.761L146.133 384.761L184.433 384.665L185.586 384.662L186.677 384.29L189.905 383.188L189.92 383.183L189.934 383.178C196.97 380.741 201.819 377.388 207.052 371.562C212.442 365.561 215.301 360.21 217.305 352.621C218.406 348.454 218.527 346.032 218.527 339.574C218.527 333.116 218.406 330.693 217.305 326.526C215.301 318.938 212.442 313.587 207.052 307.586C203.334 303.446 199.493 300.22 194.799 297.976C190.134 295.746 185.097 294.71 179.318 294.264C177.876 294.152 176.347 293.996 175.067 293.832C174.427 293.75 173.884 293.671 173.467 293.6C173.092 293.537 172.939 293.5 172.938 293.501L172.87 293.481L172.765 293.455C172.279 293.33 170.759 292.72 168.778 291.693C166.826 290.68 165.421 289.78 165.006 289.439C161.073 286.15 157.435 280.91 156.04 276.902C154.871 273.532 154.587 272.077 154.177 265.681C153.787 259.407 152.903 254.055 151.003 249.111C149.076 244.098 146.256 239.896 142.501 235.715C137.113 229.716 132.18 226.395 125.055 224.062L125.033 224.054L125.011 224.047L121.568 222.945L120.527 222.612H119.434H80.4879H41.5419H40.4489L39.4079 222.945L35.9652 224.047L35.9429 224.054L35.9207 224.062C28.7956 226.395 23.8632 229.716 18.4749 235.715C13.0848 241.716 10.2266 247.067 8.22195 254.656C7.12115 258.823 7 261.245 7 267.703C7 274.162 7.12115 276.584 8.22195 280.751C10.2266 288.339 13.0848 293.69 18.4749 299.692L23.6827 295.014L18.4749 299.692C22.198 303.837 26.0529 307.062 30.7472 309.299C35.4109 311.521 40.4373 312.544 46.1782 312.966C47.5655 313.074 49.1125 313.247 50.4621 313.445C51.1373 313.544 51.7259 313.644 52.1962 313.737C52.43 313.783 52.6152 313.823 52.754 313.857C52.8852 313.888 52.9404 313.905 52.9364 313.904L53.0315 313.934L53.1311 313.963C58.9538 315.627 65.7 321.604 68.6629 328.269C70.2331 331.842 70.9069 334.69 71.3504 341.648C71.7416 347.845 72.6396 353.165 74.5042 358.07C76.3932 363.039 79.1373 367.225 82.7778 371.333C88.8058 378.155 94.7606 381.899 103.199 383.942Z" stroke="white" stroke-opacity="0.06" stroke-width="14"/>
<path d="M685.807 161.526C678.793 159.801 674.145 156.878 668.981 151.081C664.591 146.146 662.181 141.594 660.503 135.221C659.642 131.963 659.513 130.286 659.513 123.962C659.513 117.637 659.642 115.96 660.503 112.702C662.224 106.186 664.548 101.826 669.196 96.651C675.866 89.2243 681.676 86.4454 692.477 85.6308C700.31 85.008 705.173 83.331 710.423 79.3062C713.048 77.2939 716.62 73.2212 718.599 69.9631C722.042 64.3093 723.29 59.7096 723.849 50.4623C724.581 38.7234 727.12 32.1593 733.747 24.7806C738.395 19.6059 742.311 17.0186 748.164 15.102L751.607 14H790.553H829.499L832.941 15.102C838.794 17.0186 842.71 19.6059 847.358 24.7806C854.028 32.2072 856.524 38.7234 857.256 50.5102C857.686 57.2181 858.03 59.3742 859.493 63.5906C861.344 68.909 865.777 75.1857 870.596 79.2104C872.619 80.8874 878.472 83.9538 881.097 84.6246C882.259 84.96 885.744 85.3913 888.843 85.6308C899.386 86.4454 905.282 89.2723 911.909 96.651C916.557 101.826 918.881 106.186 920.602 112.702C921.463 115.96 921.592 117.637 921.592 123.962C921.592 130.286 921.463 131.963 920.602 135.221C918.881 141.738 916.557 146.098 911.909 151.272C907.262 156.447 903.345 159.034 897.493 160.951L894.05 162.053H855.104H816.158L812.715 160.951C806.863 159.034 802.946 156.447 798.299 151.272C791.671 143.894 789.132 137.33 788.401 125.591C788.186 122.093 787.712 117.877 787.325 116.248C784.528 104.078 774.415 93.5845 763.054 91.093C752.338 88.7452 740.245 94.8782 733.403 106.09C729.96 111.744 728.712 116.343 728.153 125.591C727.421 137.33 724.882 143.894 718.255 151.272C713.693 156.351 709.734 159.034 704.054 160.855C699.75 162.245 690.154 162.628 685.807 161.526Z" fill="#2F2F2F"/>
<path d="M663.754 155.737L663.75 155.733C658.616 149.96 655.687 144.421 653.734 137.006L663.754 155.737ZM663.754 155.737C669.756 162.475 675.6 166.22 684.112 168.318C687.27 169.113 691.546 169.259 695.211 169.12C698.901 168.98 703.13 168.508 706.196 167.519C713.228 165.264 718.204 161.806 723.463 155.95C727.199 151.79 730.015 147.591 731.946 142.586C733.852 137.644 734.749 132.292 735.139 126.026L735.14 126.013M663.754 155.737L735.14 126.013M712.617 66.3283L712.62 66.3224C715.285 61.9473 716.346 58.5665 716.862 50.0395L716.863 50.0268C717.253 43.7614 718.151 38.4086 720.056 33.4674C721.987 28.4618 724.803 24.2632 728.54 20.1031C733.928 14.1039 738.86 10.7829 745.985 8.44961L746.008 8.44235L746.03 8.43523L749.473 7.33322L750.514 7H751.607H790.553H829.499H830.592L831.633 7.33322L835.075 8.43523L835.098 8.44235L835.12 8.44961C842.245 10.7829 847.177 14.1039 852.566 20.1031C856.321 24.2843 859.141 28.4855 861.068 33.4989C862.968 38.4426 863.852 43.7949 864.242 50.0687C864.652 56.4646 864.936 57.9204 866.105 61.2903C867.499 65.2985 871.137 70.5382 875.071 73.8276C875.486 74.1681 876.891 75.0684 878.843 76.0808C880.824 77.1078 882.343 77.7183 882.83 77.8426L882.934 77.8693L883.003 77.889C883.003 77.8879 883.157 77.9247 883.532 77.9882C883.949 78.059 884.492 78.1383 885.132 78.2203C886.412 78.3841 887.941 78.5402 889.382 78.6517C895.161 79.0981 900.199 80.1337 904.864 82.364C909.558 84.608 913.399 87.8339 917.117 91.9735C922.507 97.9748 925.365 103.326 927.37 110.914C928.471 115.081 928.592 117.503 928.592 123.962C928.592 130.42 928.471 132.842 927.37 137.009C925.365 144.598 922.507 149.949 917.117 155.95C911.729 161.949 906.796 165.27 899.671 167.603L899.649 167.611L899.627 167.618L896.184 168.72L895.143 169.053H894.05H855.104H816.158H815.065L814.024 168.72L810.581 167.618L810.559 167.611L810.537 167.603C803.412 165.27 798.479 161.949 793.091 155.95C789.354 151.79 786.538 147.591 784.608 142.586C782.702 137.644 781.805 132.292 781.414 126.026L781.414 126.021C781.2 122.547 780.751 118.858 780.515 117.867L780.509 117.841L780.503 117.816C778.254 108.031 770.028 99.7895 761.556 97.9308L712.617 66.3283ZM712.617 66.3283C711.026 68.9466 708.012 72.3341 706.164 73.7508C702.203 76.7872 698.712 78.1116 691.936 78.6518C686.061 79.0959 680.978 80.1119 676.287 82.3368C671.557 84.5809 667.72 87.819 663.988 91.9735C658.598 97.9748 655.74 103.326 653.735 110.914C652.634 115.081 652.513 117.503 652.513 123.962C652.513 130.417 652.634 132.84 653.734 137.004L712.617 66.3283ZM735.14 126.013C735.656 117.489 736.717 114.108 739.38 109.734M735.14 126.013L739.38 109.734M739.38 109.734C745.072 100.409 754.45 96.3748 761.554 97.9305L739.38 109.734Z" stroke="white" stroke-opacity="0.06" stroke-width="14"/>
</svg>
