<svg width="1000" height="1000" viewBox="0 0 1000 1000" fill="none" xmlns="http://www.w3.org/2000/svg">
    <path
        d="M0 466.4C0 82.3196 82.3196 0 466.4 0H533.6C917.68 0 1000 82.3196 1000 466.4V533.6C1000 917.68 917.68 1000 533.6 1000H466.4C82.3196 1000 0 917.68 0 533.6V466.4Z"
        fill="#0B0B0B" />
    <path
        d="M371.303 143.651C357.813 146.206 347.592 151.555 338.441 160.706C330.537 168.55 325.426 177.464 322.455 188.517C321.148 193.509 320.97 195.41 320.97 203.433C320.97 211.455 321.148 213.357 322.455 218.348C328.338 240.217 344.383 256.262 366.252 262.145C371.243 263.452 373.145 263.63 381.167 263.63C389.19 263.63 391.091 263.452 396.083 262.145C417.951 256.262 433.996 240.217 439.879 218.348C441.187 213.357 441.365 211.455 441.365 203.433C441.365 195.41 441.187 193.509 439.879 188.517C433.996 166.649 417.714 150.366 396.083 144.78C389.011 142.938 377.661 142.463 371.303 143.651Z"
        fill="url(#paint0_linear_19_17)" />
    <path
        d="M609.003 143.651C595.513 146.206 585.292 151.555 576.141 160.706C568.237 168.55 563.127 177.464 560.155 188.517C558.848 193.509 558.67 195.41 558.67 203.433C558.67 211.455 558.848 213.357 560.155 218.348C566.038 240.217 582.083 256.262 603.952 262.145C608.943 263.452 610.845 263.63 618.867 263.63C626.89 263.63 628.791 263.452 633.783 262.145C655.651 256.262 671.696 240.217 677.579 218.348C678.887 213.357 679.065 211.455 679.065 203.433C679.065 195.41 678.887 193.509 677.579 188.517C671.696 166.649 655.414 150.366 633.783 144.78C626.711 142.938 615.361 142.463 609.003 143.651Z"
        fill="url(#paint1_linear_19_17)" />
    <path
        d="M252.452 381.351C238.962 383.906 228.741 389.255 219.59 398.406C211.746 406.191 206.695 415.045 203.604 426.217L202 431.922V559.983V688.044L203.604 693.749C206.695 704.921 211.746 713.775 219.59 721.56C231.059 733.088 243.657 738.318 262.316 739.447C274.558 740.219 280.441 741.646 289.236 746.043C299.279 751.094 307.895 759.592 313.363 769.873C318.176 778.846 319.781 785.026 320.553 797.684C321.623 816.284 326.912 828.941 338.44 840.41C346.225 848.254 355.079 853.305 366.251 856.396L371.956 858H500.017H628.078L633.783 856.396C644.955 853.305 653.809 848.254 661.594 840.41C673.122 828.941 678.351 816.343 679.481 797.684C680.253 785.204 681.976 778.549 686.612 769.932C692.673 758.701 701.587 750.381 713.591 744.736C720.603 741.467 726.902 740.101 737.717 739.447C756.317 738.377 768.975 733.088 780.444 721.56C788.288 713.775 793.339 704.921 796.429 693.749L798.034 688.044V559.983V431.922L796.429 426.217C790.368 404.17 774.442 388.304 752.633 382.421C747.641 381.113 745.74 380.935 737.717 380.935C729.695 380.935 727.793 381.113 722.801 382.421C700.992 388.304 685.066 404.17 679.005 426.217L677.401 431.922L677.104 559.983C676.806 677.051 676.688 688.341 675.796 691.61C672.171 704.564 667.061 713.419 658.563 721.322C651.788 727.74 642.934 732.613 633.426 735.347L628.672 736.713L502.691 736.892C366.489 737.129 371.956 737.189 362.626 734.039C343.372 727.443 329.883 712.587 324.297 691.907C323.346 688.282 323.227 679.606 322.93 559.983L322.633 431.922L321.028 426.217C314.967 404.17 298.863 388.066 277.232 382.48C270.161 380.638 258.81 380.163 252.452 381.351Z"
        fill="url(#paint2_linear_19_17)" />
    <defs>
        <linearGradient id="paint0_linear_19_17" x1="327.829" y1="217.562" x2="429.511" y2="202.565"
            gradientUnits="userSpaceOnUse">
            <stop stop-color="#24FF00" />
            <stop offset="1" stop-color="#00B3FF" />
        </linearGradient>
        <linearGradient id="paint1_linear_19_17" x1="565.529" y1="217.562" x2="667.211" y2="202.565"
            gradientUnits="userSpaceOnUse">
            <stop stop-color="#24FF00" />
            <stop offset="1" stop-color="#00B3FF" />
        </linearGradient>
        <linearGradient id="paint2_linear_19_17" x1="235.96" y1="675.719" x2="733.36" y2="583.93"
            gradientUnits="userSpaceOnUse">
            <stop stop-color="#24FF00" />
            <stop offset="1" stop-color="#00B3FF" />
        </linearGradient>
    </defs>
</svg>