<svg width="2632" height="1955" viewBox="0 0 2632 1955" fill="none" xmlns="http://www.w3.org/2000/svg">
<path d="M29.5 0V1955M2626.5 0V1955M0 1949.5H2615M0 19.345H2615M0 1900.47H2615M0 1846.46H2615M0 1787.48H2615M0 1723.52H2615M0 1654.59H2615M0 1580.67H2615M0 1501.79H2615M0 1417.93H2615M0 1329.09H2615M0 1235.28H2615M0 1136.49H2615M0 1032.73H2615M0 923.989H2615M0 810.277H2615M0 691.585H2615M0 567.918H2615M0 439.279H2615M0 305.664H2615M0 167.069H2615M0 23.5H2615" stroke="url(#paint0_linear_53_18336)" stroke-width="11"/>
<defs>
<linearGradient id="paint0_linear_53_18336" x1="1313" y1="248" x2="1313" y2="1975.5" gradientUnits="userSpaceOnUse">
<stop stop-color="#FF004D"/>
<stop offset="0.486386" stop-color="#FF0099" stop-opacity="0.67"/>
<stop offset="1" stop-color="#5200FF" stop-opacity="0"/>
</linearGradient>
</defs>
</svg>
