<svg width="1120" height="1120" viewBox="0 0 1120 1120" fill="none" xmlns="http://www.w3.org/2000/svg">
<g clip-path="url(#clip0_71_45)">
<path d="M392 30C322.965 30 265.442 33.6599 218.275 44.1424C170.768 54.7005 131.947 72.5748 102.261 102.261C72.5748 131.947 54.7005 170.768 44.1424 218.275C33.6599 265.442 30 322.965 30 392V728C30 797.035 33.6599 854.558 44.1424 901.725C54.7005 949.232 72.5748 988.053 102.261 1017.74C131.947 1047.43 170.768 1065.3 218.275 1075.86C265.442 1086.34 322.965 1090 392 1090H728C797.035 1090 854.558 1086.34 901.725 1075.86C949.232 1065.3 988.053 1047.43 1017.74 1017.74C1047.43 988.053 1065.3 949.232 1075.86 901.725C1086.34 854.558 1090 797.035 1090 728V392C1090 322.965 1086.34 265.442 1075.86 218.275C1065.3 170.768 1047.43 131.947 1017.74 102.261C988.053 72.5748 949.232 54.7005 901.725 44.1424C854.558 33.6599 797.035 30 728 30H392Z" fill="white" stroke="black" stroke-width="60"/>
<path d="M187 902C326.6 439.2 439.5 332.167 458 337.5C495.167 556.834 563.1 970.101 537.5 868.501C505.5 741.501 547 655 348.5 658" stroke="url(#paint0_linear_71_45)" stroke-width="72"/>
<path d="M725 557.544C725 541.503 738.003 528.5 754.044 528.5C767.5 528.5 779.194 537.743 782.302 550.835L858.104 870.137C873.241 933.902 797.746 979.627 748.248 936.674C733.481 923.86 725 905.271 725 885.72V557.544Z" fill="url(#paint1_linear_71_45)"/>
<path d="M202.236 875.031L189.461 871.125C173.88 866.362 157.388 875.13 152.625 890.711C147.862 906.291 156.631 922.784 172.211 927.547L184.986 931.453C200.566 936.216 217.058 927.447 221.822 911.867C226.585 896.286 217.816 879.794 202.236 875.031Z" fill="black"/>
<path d="M816 387C816 440.019 773.019 483 720 483C666.981 483 624 440.019 624 387C624 333.981 666.981 291 720 291C773.019 291 816 333.981 816 387ZM674.926 387C674.926 411.893 695.107 432.074 720 432.074C744.893 432.074 765.074 411.893 765.074 387C765.074 362.107 744.893 396 720 396C695.107 396 674.926 362.107 674.926 387Z" fill="url(#paint2_linear_71_45)"/>
</g>
<defs>
<linearGradient id="paint0_linear_71_45" x1="187" y1="802" x2="675" y2="539.5" gradientUnits="userSpaceOnUse">
<stop/>
<stop offset="1" stop-color="#006A1E"/>
</linearGradient>
<linearGradient id="paint1_linear_71_45" x1="748.5" y1="928" x2="793" y2="529" gradientUnits="userSpaceOnUse">
<stop stop-color="#091703"/>
<stop offset="1" stop-color="#154D01"/>
</linearGradient>
<linearGradient id="paint2_linear_71_45" x1="645" y1="554" x2="795" y2="314" gradientUnits="userSpaceOnUse">
<stop offset="0.0782882"/>
<stop offset="1" stop-color="#00FF47"/>
</linearGradient>
<clipPath id="clip0_71_45">
<rect width="1120" height="1120" fill="white"/>
</clipPath>
</defs>
</svg>
