<svg width="1120" height="1120" viewBox="0 0 1120 1120" fill="none" xmlns="http://www.w3.org/2000/svg">
<g clip-path="url(#clip0_71_58)">
<path d="M392 30C322.965 30 265.442 33.6599 218.275 44.1424C170.768 54.7005 131.947 72.5748 102.261 102.261C72.5748 131.947 54.7005 170.768 44.1424 218.275C33.6599 265.442 30 322.965 30 392V728C30 797.035 33.6599 854.558 44.1424 901.725C54.7005 949.232 72.5748 988.053 102.261 1017.74C131.947 1047.43 170.768 1065.3 218.275 1075.86C265.442 1086.34 322.965 1090 392 1090H728C797.035 1090 854.558 1086.34 901.725 1075.86C949.232 1065.3 988.053 1047.43 1017.74 1017.74C1047.43 988.053 1065.3 949.232 1075.86 901.725C1086.34 854.558 1090 797.035 1090 728V392C1090 322.965 1086.34 265.442 1075.86 218.275C1065.3 170.768 1047.43 131.947 1017.74 102.261C988.053 72.5748 949.232 54.7005 901.725 44.1424C854.558 33.6599 797.035 30 728 30H392Z" fill="white" stroke="black" stroke-width="60"/>
<path d="M652.62 495.89C600.342 548.169 600.152 570.389 651.549 621.786L714.713 684.95C766.11 736.347 788.331 736.158 840.609 683.879L904.857 619.631C957.135 567.353 957.324 545.132 905.928 493.736L842.764 430.571C791.367 379.175 769.146 379.364 716.868 431.642L652.62 495.89Z" fill="url(#paint0_linear_71_58)"/>
<path d="M652.62 495.89C600.342 548.169 600.152 570.389 651.549 621.786L714.713 684.95C766.11 736.347 788.331 736.158 840.609 683.879L904.857 619.631C957.135 567.353 957.324 545.132 905.928 493.736L842.764 430.571C791.367 379.175 769.146 379.364 716.868 431.642L652.62 495.89Z" fill="url(#paint1_linear_71_58)"/>
<path d="M206.486 501.713C154.208 553.991 154.019 576.212 205.415 627.608L268.58 690.772C319.976 742.169 342.197 741.98 394.475 689.702L458.723 625.454C511.002 573.175 511.191 550.955 459.794 499.558L396.63 436.394C345.233 384.997 323.013 385.186 270.734 437.465L206.486 501.713Z" fill="url(#paint2_linear_71_58)"/>
<path d="M206.486 501.713C154.208 553.991 154.019 576.212 205.415 627.608L268.58 690.772C319.976 742.169 342.197 741.98 394.475 689.702L458.723 625.454C511.002 573.175 511.191 550.955 459.794 499.558L396.63 436.394C345.233 384.997 323.013 385.186 270.734 437.465L206.486 501.713Z" fill="url(#paint3_linear_71_58)"/>
<path d="M432.46 275.733C380.181 328.011 379.992 350.232 431.389 401.628L494.553 464.793C545.95 516.189 568.17 516 620.449 463.722L684.697 399.474C736.975 347.195 737.164 324.975 685.768 273.578L622.603 210.414C571.207 159.017 548.986 159.206 496.708 211.485L432.46 275.733Z" fill="url(#paint4_linear_71_58)"/>
<path d="M432.46 275.733C380.181 328.011 379.992 350.232 431.389 401.628L494.553 464.793C545.95 516.189 568.17 516 620.449 463.722L684.697 399.474C736.975 347.195 737.164 324.975 685.768 273.578L622.603 210.414C571.207 159.017 548.986 159.206 496.708 211.485L432.46 275.733Z" fill="url(#paint5_linear_71_58)"/>
<path d="M435.699 730.918C383.421 783.196 383.232 805.417 434.628 856.813L497.792 919.978C549.189 971.374 571.41 971.185 623.688 918.907L687.936 854.659C740.215 802.38 740.404 780.16 689.007 728.763L625.843 665.599C574.446 614.202 552.225 614.391 499.947 666.67L435.699 730.918Z" fill="url(#paint6_linear_71_58)"/>
<path d="M435.699 730.918C383.421 783.196 383.232 805.417 434.628 856.813L497.792 919.978C549.189 971.374 571.41 971.185 623.688 918.907L687.936 854.659C740.215 802.38 740.404 780.16 689.007 728.763L625.843 665.599C574.446 614.202 552.225 614.391 499.947 666.67L435.699 730.918Z" fill="url(#paint7_linear_71_58)"/>
</g>
<defs>
<linearGradient id="paint0_linear_71_58" x1="778.738" y1="392.228" x2="778.738" y2="723.295" gradientUnits="userSpaceOnUse">
<stop/>
<stop offset="1" stop-color="#00FF0A"/>
</linearGradient>
<linearGradient id="paint1_linear_71_58" x1="891.5" y1="659.5" x2="542" y2="356" gradientUnits="userSpaceOnUse">
<stop/>
<stop offset="1" stop-color="#00FF0A"/>
</linearGradient>
<linearGradient id="paint2_linear_71_58" x1="332.605" y1="398.05" x2="332.605" y2="729.117" gradientUnits="userSpaceOnUse">
<stop/>
<stop offset="1" stop-color="#00FF0A"/>
</linearGradient>
<linearGradient id="paint3_linear_71_58" x1="223.5" y1="695.5" x2="691" y2="264" gradientUnits="userSpaceOnUse">
<stop/>
<stop offset="1" stop-color="#00FF0A"/>
</linearGradient>
<linearGradient id="paint4_linear_71_58" x1="558.578" y1="172.069" x2="558.578" y2="503.136" gradientUnits="userSpaceOnUse">
<stop/>
<stop offset="1" stop-color="#00FF0A"/>
</linearGradient>
<linearGradient id="paint5_linear_71_58" x1="583.5" y1="84" x2="578" y2="859.5" gradientUnits="userSpaceOnUse">
<stop/>
<stop offset="1" stop-color="#00FF0A"/>
</linearGradient>
<linearGradient id="paint6_linear_71_58" x1="561.818" y1="627.254" x2="561.818" y2="958.322" gradientUnits="userSpaceOnUse">
<stop/>
<stop offset="1" stop-color="#00FF0A"/>
</linearGradient>
<linearGradient id="paint7_linear_71_58" x1="532" y1="890.5" x2="804" y2="171.5" gradientUnits="userSpaceOnUse">
<stop/>
<stop offset="0.801179" stop-color="#00FF0A"/>
</linearGradient>
<clipPath id="clip0_71_58">
<rect width="1120" height="1120" fill="white"/>
</clipPath>
</defs>
</svg>
