<svg width="1120" height="1120" viewBox="0 0 1120 1120" fill="none" xmlns="http://www.w3.org/2000/svg">
<path d="M392 30C322.965 30 265.442 33.6599 218.275 44.1424C170.768 54.7005 131.947 72.5748 102.261 102.261C72.5748 131.947 54.7005 170.768 44.1424 218.275C33.6599 265.442 30 322.965 30 392V728C30 797.035 33.6599 854.558 44.1424 901.725C54.7005 949.232 72.5748 988.053 102.261 1017.74C131.947 1047.43 170.768 1065.3 218.275 1075.86C265.442 1086.34 322.965 1090 392 1090H728C797.035 1090 854.558 1086.34 901.725 1075.86C949.232 1065.3 988.053 1047.43 1017.74 1017.74C1047.43 988.053 1065.3 949.232 1075.86 901.725C1086.34 854.558 1090 797.035 1090 728V392C1090 322.965 1086.34 265.442 1075.86 218.275C1065.3 170.768 1047.43 131.947 1017.74 102.261C988.053 72.5748 949.232 54.7005 901.725 44.1424C854.558 33.6599 797.035 30 728 30H392Z" fill="white" stroke="black" stroke-width="60"/>
<rect x="360" y="201" width="139" height="795" rx="69.5" fill="black"/>
<path d="M819.519 358.5C819.519 452.112 743.631 528 650.019 528C556.406 528 560.019 467.612 560.019 374C560.019 280.388 556.406 189 650.019 189C743.631 189 819.519 264.888 819.519 358.5Z" fill="black"/>
</svg>
