<svg width="1120" height="1120" viewBox="0 0 1120 1120" fill="none" xmlns="http://www.w3.org/2000/svg">
<path d="M392 30C322.965 30 265.442 33.6599 218.275 44.1424C170.768 54.7005 131.947 72.5748 102.261 102.261C72.5748 131.947 54.7005 170.768 44.1424 218.275C33.6599 265.442 30 322.965 30 392V728C30 797.035 33.6599 854.558 44.1424 901.725C54.7005 949.232 72.5748 988.053 102.261 1017.74C131.947 1047.43 170.768 1065.3 218.275 1075.86C265.442 1086.34 322.965 1090 392 1090H728C797.035 1090 854.558 1086.34 901.725 1075.86C949.232 1065.3 988.053 1047.43 1017.74 1017.74C1047.43 988.053 1065.3 949.232 1075.86 901.725C1086.34 854.558 1090 797.035 1090 728V392C1090 322.965 1086.34 265.442 1075.86 218.275C1065.3 170.768 1047.43 131.947 1017.74 102.261C988.053 72.5748 949.232 54.7005 901.725 44.1424C854.558 33.6599 797.035 30 728 30H392Z" fill="white" stroke="black" stroke-width="60"/>
<path d="M307.5 541C307.5 498.981 307.644 485.736 308.744 475.675C319.449 377.764 396.764 300.449 494.675 289.744C504.736 288.644 517.981 288.5 560 288.5C602.019 288.5 615.264 288.644 625.325 289.744C723.236 300.449 800.551 377.764 811.256 475.675C812.356 485.736 812.5 498.981 812.5 541C812.5 583.019 812.356 596.264 811.256 606.325C800.551 704.236 723.236 781.551 625.325 792.256C615.264 793.356 602.019 793.5 560 793.5H307.5V541Z" fill="white" stroke="black" stroke-width="193"/>
</svg>
