<svg width="1120" height="1120" viewBox="0 0 1120 1120" fill="none" xmlns="http://www.w3.org/2000/svg">
<path d="M392 30C322.965 30 265.442 33.6599 218.275 44.1424C170.768 54.7005 131.947 72.5748 102.261 102.261C72.5748 131.947 54.7005 170.768 44.1424 218.275C33.6599 265.442 30 322.965 30 392V728C30 797.035 33.6599 854.558 44.1424 901.725C54.7005 949.232 72.5748 988.053 102.261 1017.74C131.947 1047.43 170.768 1065.3 218.275 1075.86C265.442 1086.34 322.965 1090 392 1090H728C797.035 1090 854.558 1086.34 901.725 1075.86C949.232 1065.3 988.053 1047.43 1017.74 1017.74C1047.43 988.053 1065.3 949.232 1075.86 901.725C1086.34 854.558 1090 797.035 1090 728V392C1090 322.965 1086.34 265.442 1075.86 218.275C1065.3 170.768 1047.43 131.947 1017.74 102.261C988.053 72.5748 949.232 54.7005 901.725 44.1424C854.558 33.6599 797.035 30 728 30H392Z" fill="white" stroke="black" stroke-width="60"/>
<path d="M252 318H868V950H253C252.448 950 252 949.552 252 949V318Z" fill="black"/>
<mask id="path-3-inside-1_238_47" fill="white">
<path d="M356 168C356 150.879 369.879 137 387 137H700.17C717.291 137 731.17 150.879 731.17 168V366H357C356.448 366 356 365.552 356 365V168Z"/>
</mask>
<path d="M356 168C356 150.879 369.879 137 387 137H700.17C717.291 137 731.17 150.879 731.17 168V366H357C356.448 366 356 365.552 356 365V168Z" fill="white" stroke="black" stroke-width="102" mask="url(#path-3-inside-1_238_47)"/>
<path d="M356 318H401V415.5C401 427.926 390.926 438 378.5 438C366.074 438 356 427.926 356 415.5V318Z" fill="white"/>
<path d="M356 318H401V415.5C401 427.926 390.926 438 378.5 438C366.074 438 356 427.926 356 415.5V318Z" fill="white"/>
<path d="M356 318H401V415.5C401 427.926 390.926 438 378.5 438C366.074 438 356 427.926 356 415.5V318Z" fill="white"/>
<path d="M356 318H401V415.5C401 427.926 390.926 438 378.5 438C366.074 438 356 427.926 356 415.5V318Z" fill="white"/>
<path d="M686 318H731V415.5C731 427.926 720.926 438 708.5 438C696.074 438 686 427.926 686 415.5V318Z" fill="white"/>
<path d="M686 318H731V415.5C731 427.926 720.926 438 708.5 438C696.074 438 686 427.926 686 415.5V318Z" fill="white"/>
<path d="M686 318H731V415.5C731 427.926 720.926 438 708.5 438C696.074 438 686 427.926 686 415.5V318Z" fill="white"/>
<path d="M686 318H731V415.5C731 427.926 720.926 438 708.5 438C696.074 438 686 427.926 686 415.5V318Z" fill="white"/>
</svg>
